<svg width="285.75mm" height="95.25mm" viewBox="0 0 285.75 95.25" xmlns="http://www.w3.org/2000/svg"><g id="svgGroup" stroke-linecap="round" fill-rule="evenodd" font-size="9pt" stroke="#000" stroke-width="0.25mm" fill="none" style="stroke:#000;stroke-width:0.25mm;fill:none"><path d="M 0 95.25 L 285.75 95.25 L 285.75 0 L 0 0 L 0 95.25 Z M 257.82 40.626 L 270.818 40.626 A 0.5 0.5 0 0 1 271.318 41.126 L 271.318 54.124 A 0.5 0.5 0 0 1 270.818 54.624 L 257.82 54.624 A 0.5 0.5 0 0 1 257.32 54.124 L 257.32 41.126 A 0.5 0.5 0 0 1 257.82 40.626 Z M 260.201 2.526 L 273.199 2.526 A 0.5 0.5 0 0 1 273.699 3.026 L 273.699 16.024 A 0.5 0.5 0 0 1 273.199 16.524 L 260.201 16.524 A 0.5 0.5 0 0 1 259.701 16.024 L 259.701 3.026 A 0.5 0.5 0 0 1 260.201 2.526 Z M 264.963 21.576 L 277.962 21.576 A 0.5 0.5 0 0 1 278.462 22.076 L 278.462 35.074 A 0.5 0.5 0 0 1 277.962 35.574 L 264.963 35.574 A 0.5 0.5 0 0 1 264.463 35.074 L 264.463 22.076 A 0.5 0.5 0 0 1 264.963 21.576 Z M 269.726 59.676 L 282.724 59.676 A 0.5 0.5 0 0 1 283.224 60.176 L 283.224 73.174 A 0.5 0.5 0 0 1 282.724 73.674 L 269.726 73.674 A 0.5 0.5 0 0 1 269.226 73.174 L 269.226 60.176 A 0.5 0.5 0 0 1 269.726 59.676 Z M 269.726 78.726 L 282.724 78.726 A 0.5 0.5 0 0 1 283.224 79.226 L 283.224 92.224 A 0.5 0.5 0 0 1 282.724 92.724 L 269.726 92.724 A 0.5 0.5 0 0 1 269.226 92.224 L 269.226 79.226 A 0.5 0.5 0 0 1 269.726 78.726 Z M 243.532 59.676 L 256.53 59.676 A 0.5 0.5 0 0 1 257.03 60.176 L 257.03 73.174 A 0.5 0.5 0 0 1 256.53 73.674 L 243.532 73.674 A 0.5 0.5 0 0 1 243.032 73.174 L 243.032 60.176 A 0.5 0.5 0 0 1 243.532 59.676 Z M 36.363 40.626 L 49.362 40.626 A 0.5 0.5 0 0 1 49.862 41.126 L 49.862 54.124 A 0.5 0.5 0 0 1 49.362 54.624 L 36.363 54.624 A 0.5 0.5 0 0 1 35.863 54.124 L 35.863 41.126 A 0.5 0.5 0 0 1 36.363 40.626 Z M 55.414 40.626 L 68.412 40.626 A 0.5 0.5 0 0 1 68.912 41.126 L 68.912 54.124 A 0.5 0.5 0 0 1 68.412 54.624 L 55.414 54.624 A 0.5 0.5 0 0 1 54.914 54.124 L 54.914 41.126 A 0.5 0.5 0 0 1 55.414 40.626 Z M 250.676 78.726 L 263.674 78.726 A 0.5 0.5 0 0 1 264.174 79.226 L 264.174 92.224 A 0.5 0.5 0 0 1 263.674 92.724 L 250.676 92.724 A 0.5 0.5 0 0 1 250.176 92.224 L 250.176 79.226 A 0.5 0.5 0 0 1 250.676 78.726 Z M 3.026 2.526 L 16.024 2.526 A 0.5 0.5 0 0 1 16.524 3.026 L 16.524 16.024 A 0.5 0.5 0 0 1 16.024 16.524 L 3.026 16.524 A 0.5 0.5 0 0 1 2.526 16.024 L 2.526 3.026 A 0.5 0.5 0 0 1 3.026 2.526 Z M 41.126 2.526 L 54.124 2.526 A 0.5 0.5 0 0 1 54.624 3.026 L 54.624 16.024 A 0.5 0.5 0 0 1 54.124 16.524 L 41.126 16.524 A 0.5 0.5 0 0 1 40.626 16.024 L 40.626 3.026 A 0.5 0.5 0 0 1 41.126 2.526 Z M 117.326 2.526 L 130.324 2.526 A 0.5 0.5 0 0 1 130.824 3.026 L 130.824 16.024 A 0.5 0.5 0 0 1 130.324 16.524 L 117.326 16.524 A 0.5 0.5 0 0 1 116.826 16.024 L 116.826 3.026 A 0.5 0.5 0 0 1 117.326 2.526 Z M 50.651 21.576 L 63.649 21.576 A 0.5 0.5 0 0 1 64.149 22.076 L 64.149 35.074 A 0.5 0.5 0 0 1 63.649 35.574 L 50.651 35.574 A 0.5 0.5 0 0 1 50.151 35.074 L 50.151 22.076 A 0.5 0.5 0 0 1 50.651 21.576 Z M 10.17 40.626 L 23.168 40.626 A 0.5 0.5 0 0 1 23.668 41.126 L 23.668 54.124 A 0.5 0.5 0 0 1 23.168 54.624 L 10.17 54.624 A 0.5 0.5 0 0 1 9.67 54.124 L 9.67 41.126 A 0.5 0.5 0 0 1 10.17 40.626 Z M 45.889 59.676 L 58.887 59.676 A 0.5 0.5 0 0 1 59.387 60.176 L 59.387 73.174 A 0.5 0.5 0 0 1 58.887 73.674 L 45.889 73.674 A 0.5 0.5 0 0 1 45.389 73.174 L 45.389 60.176 A 0.5 0.5 0 0 1 45.889 59.676 Z M 22.076 2.526 L 35.074 2.526 A 0.5 0.5 0 0 1 35.574 3.026 L 35.574 16.024 A 0.5 0.5 0 0 1 35.074 16.524 L 22.076 16.524 A 0.5 0.5 0 0 1 21.576 16.024 L 21.576 3.026 A 0.5 0.5 0 0 1 22.076 2.526 Z M 60.176 2.526 L 73.174 2.526 A 0.5 0.5 0 0 1 73.674 3.026 L 73.674 16.024 A 0.5 0.5 0 0 1 73.174 16.524 L 60.176 16.524 A 0.5 0.5 0 0 1 59.676 16.024 L 59.676 3.026 A 0.5 0.5 0 0 1 60.176 2.526 Z M 7.789 21.576 L 20.787 21.576 A 0.5 0.5 0 0 1 21.287 22.076 L 21.287 35.074 A 0.5 0.5 0 0 1 20.787 35.574 L 7.789 35.574 A 0.5 0.5 0 0 1 7.289 35.074 L 7.289 22.076 A 0.5 0.5 0 0 1 7.789 21.576 Z M 31.601 21.576 L 44.599 21.576 A 0.5 0.5 0 0 1 45.099 22.076 L 45.099 35.074 A 0.5 0.5 0 0 1 44.599 35.574 L 31.601 35.574 A 0.5 0.5 0 0 1 31.101 35.074 L 31.101 22.076 A 0.5 0.5 0 0 1 31.601 21.576 Z M 74.464 40.626 L 87.462 40.626 A 0.5 0.5 0 0 1 87.962 41.126 L 87.962 54.124 A 0.5 0.5 0 0 1 87.462 54.624 L 74.464 54.624 A 0.5 0.5 0 0 1 73.964 54.124 L 73.964 41.126 A 0.5 0.5 0 0 1 74.464 40.626 Z M 93.514 40.626 L 106.512 40.626 A 0.5 0.5 0 0 1 107.012 41.126 L 107.012 54.124 A 0.5 0.5 0 0 1 106.512 54.624 L 93.514 54.624 A 0.5 0.5 0 0 1 93.014 54.124 L 93.014 41.126 A 0.5 0.5 0 0 1 93.514 40.626 Z M 112.564 40.626 L 125.562 40.626 A 0.5 0.5 0 0 1 126.062 41.126 L 126.062 54.124 A 0.5 0.5 0 0 1 125.562 54.624 L 112.564 54.624 A 0.5 0.5 0 0 1 112.064 54.124 L 112.064 41.126 A 0.5 0.5 0 0 1 112.564 40.626 Z M 131.614 40.626 L 144.612 40.626 A 0.5 0.5 0 0 1 145.112 41.126 L 145.112 54.124 A 0.5 0.5 0 0 1 144.612 54.624 L 131.614 54.624 A 0.5 0.5 0 0 1 131.114 54.124 L 131.114 41.126 A 0.5 0.5 0 0 1 131.614 40.626 Z M 150.664 40.626 L 163.662 40.626 A 0.5 0.5 0 0 1 164.162 41.126 L 164.162 54.124 A 0.5 0.5 0 0 1 163.662 54.624 L 150.664 54.624 A 0.5 0.5 0 0 1 150.164 54.124 L 150.164 41.126 A 0.5 0.5 0 0 1 150.664 40.626 Z M 169.714 40.626 L 182.712 40.626 A 0.5 0.5 0 0 1 183.212 41.126 L 183.212 54.124 A 0.5 0.5 0 0 1 182.712 54.624 L 169.714 54.624 A 0.5 0.5 0 0 1 169.214 54.124 L 169.214 41.126 A 0.5 0.5 0 0 1 169.714 40.626 Z M 188.764 40.626 L 201.761 40.626 A 0.5 0.5 0 0 1 202.261 41.126 L 202.261 54.124 A 0.5 0.5 0 0 1 201.761 54.624 L 188.764 54.624 A 0.5 0.5 0 0 1 188.264 54.124 L 188.264 41.126 A 0.5 0.5 0 0 1 188.764 40.626 Z M 207.814 40.626 L 220.812 40.626 A 0.5 0.5 0 0 1 221.312 41.126 L 221.312 54.124 A 0.5 0.5 0 0 1 220.812 54.624 L 207.814 54.624 A 0.5 0.5 0 0 1 207.314 54.124 L 207.314 41.126 A 0.5 0.5 0 0 1 207.814 40.626 Z M 226.864 40.626 L 239.862 40.626 A 0.5 0.5 0 0 1 240.362 41.126 L 240.362 54.124 A 0.5 0.5 0 0 1 239.862 54.624 L 226.864 54.624 A 0.5 0.5 0 0 1 226.364 54.124 L 226.364 41.126 A 0.5 0.5 0 0 1 226.864 40.626 Z M 14.932 59.676 L 27.93 59.676 A 0.5 0.5 0 0 1 28.43 60.176 L 28.43 73.174 A 0.5 0.5 0 0 1 27.93 73.674 L 14.932 73.674 A 0.5 0.5 0 0 1 14.432 73.174 L 14.432 60.176 A 0.5 0.5 0 0 1 14.932 59.676 Z M 119.707 78.726 L 132.705 78.726 A 0.5 0.5 0 0 1 133.205 79.226 L 133.205 92.224 A 0.5 0.5 0 0 1 132.705 92.724 L 119.707 92.724 A 0.5 0.5 0 0 1 119.207 92.224 L 119.207 79.226 A 0.5 0.5 0 0 1 119.707 78.726 Z M 79.226 2.526 L 92.224 2.526 A 0.5 0.5 0 0 1 92.724 3.026 L 92.724 16.024 A 0.5 0.5 0 0 1 92.224 16.524 L 79.226 16.524 A 0.5 0.5 0 0 1 78.726 16.024 L 78.726 3.026 A 0.5 0.5 0 0 1 79.226 2.526 Z M 98.276 2.526 L 111.274 2.526 A 0.5 0.5 0 0 1 111.774 3.026 L 111.774 16.024 A 0.5 0.5 0 0 1 111.274 16.524 L 98.276 16.524 A 0.5 0.5 0 0 1 97.776 16.024 L 97.776 3.026 A 0.5 0.5 0 0 1 98.276 2.526 Z M 136.376 2.526 L 149.374 2.526 A 0.5 0.5 0 0 1 149.874 3.026 L 149.874 16.024 A 0.5 0.5 0 0 1 149.374 16.524 L 136.376 16.524 A 0.5 0.5 0 0 1 135.876 16.024 L 135.876 3.026 A 0.5 0.5 0 0 1 136.376 2.526 Z M 155.426 2.526 L 168.424 2.526 A 0.5 0.5 0 0 1 168.924 3.026 L 168.924 16.024 A 0.5 0.5 0 0 1 168.424 16.524 L 155.426 16.524 A 0.5 0.5 0 0 1 154.926 16.024 L 154.926 3.026 A 0.5 0.5 0 0 1 155.426 2.526 Z M 174.476 2.526 L 187.474 2.526 A 0.5 0.5 0 0 1 187.974 3.026 L 187.974 16.024 A 0.5 0.5 0 0 1 187.474 16.524 L 174.476 16.524 A 0.5 0.5 0 0 1 173.976 16.024 L 173.976 3.026 A 0.5 0.5 0 0 1 174.476 2.526 Z M 193.526 2.526 L 206.524 2.526 A 0.5 0.5 0 0 1 207.024 3.026 L 207.024 16.024 A 0.5 0.5 0 0 1 206.524 16.524 L 193.526 16.524 A 0.5 0.5 0 0 1 193.026 16.024 L 193.026 3.026 A 0.5 0.5 0 0 1 193.526 2.526 Z M 212.576 2.526 L 225.574 2.526 A 0.5 0.5 0 0 1 226.074 3.026 L 226.074 16.024 A 0.5 0.5 0 0 1 225.574 16.524 L 212.576 16.524 A 0.5 0.5 0 0 1 212.076 16.024 L 212.076 3.026 A 0.5 0.5 0 0 1 212.576 2.526 Z M 231.626 2.526 L 244.624 2.526 A 0.5 0.5 0 0 1 245.124 3.026 L 245.124 16.024 A 0.5 0.5 0 0 1 244.624 16.524 L 231.626 16.524 A 0.5 0.5 0 0 1 231.126 16.024 L 231.126 3.026 A 0.5 0.5 0 0 1 231.626 2.526 Z M 29.22 78.726 L 42.218 78.726 A 0.5 0.5 0 0 1 42.718 79.226 L 42.718 92.224 A 0.5 0.5 0 0 1 42.218 92.724 L 29.22 92.724 A 0.5 0.5 0 0 1 28.72 92.224 L 28.72 79.226 A 0.5 0.5 0 0 1 29.22 78.726 Z M 69.701 21.576 L 82.699 21.576 A 0.5 0.5 0 0 1 83.199 22.076 L 83.199 35.074 A 0.5 0.5 0 0 1 82.699 35.574 L 69.701 35.574 A 0.5 0.5 0 0 1 69.201 35.074 L 69.201 22.076 A 0.5 0.5 0 0 1 69.701 21.576 Z M 88.751 21.576 L 101.749 21.576 A 0.5 0.5 0 0 1 102.249 22.076 L 102.249 35.074 A 0.5 0.5 0 0 1 101.749 35.574 L 88.751 35.574 A 0.5 0.5 0 0 1 88.251 35.074 L 88.251 22.076 A 0.5 0.5 0 0 1 88.751 21.576 Z M 107.801 21.576 L 120.799 21.576 A 0.5 0.5 0 0 1 121.299 22.076 L 121.299 35.074 A 0.5 0.5 0 0 1 120.799 35.574 L 107.801 35.574 A 0.5 0.5 0 0 1 107.301 35.074 L 107.301 22.076 A 0.5 0.5 0 0 1 107.801 21.576 Z M 126.851 21.576 L 139.849 21.576 A 0.5 0.5 0 0 1 140.349 22.076 L 140.349 35.074 A 0.5 0.5 0 0 1 139.849 35.574 L 126.851 35.574 A 0.5 0.5 0 0 1 126.351 35.074 L 126.351 22.076 A 0.5 0.5 0 0 1 126.851 21.576 Z M 145.901 21.576 L 158.899 21.576 A 0.5 0.5 0 0 1 159.399 22.076 L 159.399 35.074 A 0.5 0.5 0 0 1 158.899 35.574 L 145.901 35.574 A 0.5 0.5 0 0 1 145.401 35.074 L 145.401 22.076 A 0.5 0.5 0 0 1 145.901 21.576 Z M 164.951 21.576 L 177.949 21.576 A 0.5 0.5 0 0 1 178.449 22.076 L 178.449 35.074 A 0.5 0.5 0 0 1 177.949 35.574 L 164.951 35.574 A 0.5 0.5 0 0 1 164.451 35.074 L 164.451 22.076 A 0.5 0.5 0 0 1 164.951 21.576 Z M 184.001 21.576 L 196.999 21.576 A 0.5 0.5 0 0 1 197.499 22.076 L 197.499 35.074 A 0.5 0.5 0 0 1 196.999 35.574 L 184.001 35.574 A 0.5 0.5 0 0 1 183.501 35.074 L 183.501 22.076 A 0.5 0.5 0 0 1 184.001 21.576 Z M 203.051 21.576 L 216.049 21.576 A 0.5 0.5 0 0 1 216.549 22.076 L 216.549 35.074 A 0.5 0.5 0 0 1 216.049 35.574 L 203.051 35.574 A 0.5 0.5 0 0 1 202.551 35.074 L 202.551 22.076 A 0.5 0.5 0 0 1 203.051 21.576 Z M 222.101 21.576 L 235.099 21.576 A 0.5 0.5 0 0 1 235.599 22.076 L 235.599 35.074 A 0.5 0.5 0 0 1 235.099 35.574 L 222.101 35.574 A 0.5 0.5 0 0 1 221.601 35.074 L 221.601 22.076 A 0.5 0.5 0 0 1 222.101 21.576 Z M 241.151 21.576 L 254.149 21.576 A 0.5 0.5 0 0 1 254.649 22.076 L 254.649 35.074 A 0.5 0.5 0 0 1 254.149 35.574 L 241.151 35.574 A 0.5 0.5 0 0 1 240.651 35.074 L 240.651 22.076 A 0.5 0.5 0 0 1 241.151 21.576 Z M 64.939 59.676 L 77.937 59.676 A 0.5 0.5 0 0 1 78.437 60.176 L 78.437 73.174 A 0.5 0.5 0 0 1 77.937 73.674 L 64.939 73.674 A 0.5 0.5 0 0 1 64.439 73.174 L 64.439 60.176 A 0.5 0.5 0 0 1 64.939 59.676 Z M 83.989 59.676 L 96.986 59.676 A 0.5 0.5 0 0 1 97.486 60.176 L 97.486 73.174 A 0.5 0.5 0 0 1 96.986 73.674 L 83.989 73.674 A 0.5 0.5 0 0 1 83.489 73.174 L 83.489 60.176 A 0.5 0.5 0 0 1 83.989 59.676 Z M 103.039 59.676 L 116.036 59.676 A 0.5 0.5 0 0 1 116.536 60.176 L 116.536 73.174 A 0.5 0.5 0 0 1 116.036 73.674 L 103.039 73.674 A 0.5 0.5 0 0 1 102.539 73.174 L 102.539 60.176 A 0.5 0.5 0 0 1 103.039 59.676 Z M 122.089 59.676 L 135.087 59.676 A 0.5 0.5 0 0 1 135.587 60.176 L 135.587 73.174 A 0.5 0.5 0 0 1 135.087 73.674 L 122.089 73.674 A 0.5 0.5 0 0 1 121.589 73.174 L 121.589 60.176 A 0.5 0.5 0 0 1 122.089 59.676 Z M 141.139 59.676 L 154.136 59.676 A 0.5 0.5 0 0 1 154.636 60.176 L 154.636 73.174 A 0.5 0.5 0 0 1 154.136 73.674 L 141.139 73.674 A 0.5 0.5 0 0 1 140.639 73.174 L 140.639 60.176 A 0.5 0.5 0 0 1 141.139 59.676 Z M 160.189 59.676 L 173.187 59.676 A 0.5 0.5 0 0 1 173.687 60.176 L 173.687 73.174 A 0.5 0.5 0 0 1 173.187 73.674 L 160.189 73.674 A 0.5 0.5 0 0 1 159.689 73.174 L 159.689 60.176 A 0.5 0.5 0 0 1 160.189 59.676 Z M 179.239 59.676 L 192.237 59.676 A 0.5 0.5 0 0 1 192.737 60.176 L 192.737 73.174 A 0.5 0.5 0 0 1 192.237 73.674 L 179.239 73.674 A 0.5 0.5 0 0 1 178.739 73.174 L 178.739 60.176 A 0.5 0.5 0 0 1 179.239 59.676 Z M 198.289 59.676 L 211.287 59.676 A 0.5 0.5 0 0 1 211.787 60.176 L 211.787 73.174 A 0.5 0.5 0 0 1 211.287 73.674 L 198.289 73.674 A 0.5 0.5 0 0 1 197.789 73.174 L 197.789 60.176 A 0.5 0.5 0 0 1 198.289 59.676 Z M 217.339 59.676 L 230.337 59.676 A 0.5 0.5 0 0 1 230.837 60.176 L 230.837 73.174 A 0.5 0.5 0 0 1 230.337 73.674 L 217.339 73.674 A 0.5 0.5 0 0 1 216.839 73.174 L 216.839 60.176 A 0.5 0.5 0 0 1 217.339 59.676 Z M 5.407 78.726 L 18.405 78.726 A 0.5 0.5 0 0 1 18.905 79.226 L 18.905 92.224 A 0.5 0.5 0 0 1 18.405 92.724 L 5.407 92.724 A 0.5 0.5 0 0 1 4.907 92.224 L 4.907 79.226 A 0.5 0.5 0 0 1 5.407 78.726 Z M 53.032 78.726 L 66.03 78.726 A 0.5 0.5 0 0 1 66.53 79.226 L 66.53 92.224 A 0.5 0.5 0 0 1 66.03 92.724 L 53.032 92.724 A 0.5 0.5 0 0 1 52.532 92.224 L 52.532 79.226 A 0.5 0.5 0 0 1 53.032 78.726 Z M 86.37 78.726 L 99.368 78.726 A 0.5 0.5 0 0 1 99.868 79.226 L 99.868 92.224 A 0.5 0.5 0 0 1 99.368 92.724 L 86.37 92.724 A 0.5 0.5 0 0 1 85.87 92.224 L 85.87 79.226 A 0.5 0.5 0 0 1 86.37 78.726 Z M 157.807 78.726 L 170.805 78.726 A 0.5 0.5 0 0 1 171.305 79.226 L 171.305 92.224 A 0.5 0.5 0 0 1 170.805 92.724 L 157.807 92.724 A 0.5 0.5 0 0 1 157.307 92.224 L 157.307 79.226 A 0.5 0.5 0 0 1 157.807 78.726 Z M 193.526 78.726 L 206.524 78.726 A 0.5 0.5 0 0 1 207.024 79.226 L 207.024 92.224 A 0.5 0.5 0 0 1 206.524 92.724 L 193.526 92.724 A 0.5 0.5 0 0 1 193.026 92.224 L 193.026 79.226 A 0.5 0.5 0 0 1 193.526 78.726 Z M 212.576 78.726 L 225.574 78.726 A 0.5 0.5 0 0 1 226.074 79.226 L 226.074 92.224 A 0.5 0.5 0 0 1 225.574 92.724 L 212.576 92.724 A 0.5 0.5 0 0 1 212.076 92.224 L 212.076 79.226 A 0.5 0.5 0 0 1 212.576 78.726 Z M 231.626 78.726 L 244.624 78.726 A 0.5 0.5 0 0 1 245.124 79.226 L 245.124 92.224 A 0.5 0.5 0 0 1 244.624 92.724 L 231.626 92.724 A 0.5 0.5 0 0 1 231.126 92.224 L 231.126 79.226 A 0.5 0.5 0 0 1 231.626 78.726 Z M 273.258 41.626 L 279.256 41.626 A 0.5 0.5 0 0 1 279.756 42.126 L 279.756 56.124 A 0.5 0.5 0 0 1 279.256 56.624 L 273.258 56.624 A 0.5 0.5 0 0 1 272.758 56.124 L 272.758 42.126 A 0.5 0.5 0 0 1 273.258 41.626 Z M 275.639 3.526 L 281.637 3.526 A 0.5 0.5 0 0 1 282.137 4.026 L 282.137 18.024 A 0.5 0.5 0 0 1 281.637 18.524 L 275.639 18.524 A 0.5 0.5 0 0 1 275.139 18.024 L 275.139 4.026 A 0.5 0.5 0 0 1 275.639 3.526 Z M 251.763 3.526 L 257.761 3.526 A 0.5 0.5 0 0 1 258.261 4.026 L 258.261 18.024 A 0.5 0.5 0 0 1 257.761 18.524 L 251.763 18.524 A 0.5 0.5 0 0 1 251.263 18.024 L 251.263 4.026 A 0.5 0.5 0 0 1 251.763 3.526 Z M 249.382 41.626 L 255.38 41.626 A 0.5 0.5 0 0 1 255.88 42.126 L 255.88 56.124 A 0.5 0.5 0 0 1 255.38 56.624 L 249.382 56.624 A 0.5 0.5 0 0 1 248.882 56.124 L 248.882 42.126 A 0.5 0.5 0 0 1 249.382 41.626 Z M 6.494 60.676 L 12.492 60.676 A 0.5 0.5 0 0 1 12.992 61.176 L 12.992 75.174 A 0.5 0.5 0 0 1 12.492 75.674 L 6.494 75.674 A 0.5 0.5 0 0 1 5.994 75.174 L 5.994 61.176 A 0.5 0.5 0 0 1 6.494 60.676 Z M 30.37 60.676 L 36.368 60.676 A 0.5 0.5 0 0 1 36.868 61.176 L 36.868 75.174 A 0.5 0.5 0 0 1 36.368 75.674 L 30.37 75.674 A 0.5 0.5 0 0 1 29.87 75.174 L 29.87 61.176 A 0.5 0.5 0 0 1 30.37 60.676 Z M 107.806 91.724 L 101.808 91.724 A 0.5 0.5 0 0 1 101.308 91.224 L 101.308 77.226 A 0.5 0.5 0 0 1 101.808 76.726 L 107.806 76.726 A 0.5 0.5 0 0 1 108.306 77.226 L 108.306 91.224 A 0.5 0.5 0 0 1 107.806 91.724 Z M 83.93 91.724 L 77.932 91.724 A 0.5 0.5 0 0 1 77.432 91.224 L 77.432 77.226 A 0.5 0.5 0 0 1 77.932 76.726 L 83.93 76.726 A 0.5 0.5 0 0 1 84.43 77.226 L 84.43 91.224 A 0.5 0.5 0 0 1 83.93 91.724 Z M 179.243 91.724 L 173.245 91.724 A 0.5 0.5 0 0 1 172.745 91.224 L 172.745 77.226 A 0.5 0.5 0 0 1 173.245 76.726 L 179.243 76.726 A 0.5 0.5 0 0 1 179.743 77.226 L 179.743 91.224 A 0.5 0.5 0 0 1 179.243 91.724 Z M 155.367 91.724 L 149.369 91.724 A 0.5 0.5 0 0 1 148.869 91.224 L 148.869 77.226 A 0.5 0.5 0 0 1 149.369 76.726 L 155.367 76.726 A 0.5 0.5 0 0 1 155.867 77.226 L 155.867 91.224 A 0.5 0.5 0 0 1 155.367 91.724 Z" vector-effect="non-scaling-stroke"/></g></svg>