<?xml version="1.0"?>
<!-- Generated by SVGo -->
<svg width="295.752mm" height="105.252mm"
     viewBox="0.000 0.000 295.752 105.252"
     xmlns="http://www.w3.org/2000/svg" 
     xmlns:xlink="http://www.w3.org/1999/xlink">
<polygon points="287.564,5.163 287.799,5.172 288.034,5.199 288.264,5.245 288.491,5.309 288.712,5.391 288.925,5.489 289.131,5.605 289.327,5.735 289.512,5.881 289.685,6.041 289.845,6.214 289.991,6.399 290.121,6.595 290.237,6.801 290.335,7.014 290.417,7.235 290.481,7.462 290.527,7.693 290.554,7.927 290.564,8.163 290.564,59.326 287.063,59.326 286.290,59.448 285.594,59.803 285.041,60.356 284.686,61.053 284.564,61.825 284.686,62.599 285.041,63.295 285.594,63.849 286.290,64.204 287.063,64.326 290.564,64.326 290.564,97.090 290.554,97.325 290.527,97.558 290.481,97.790 290.417,98.016 290.335,98.237 290.237,98.451 290.121,98.656 289.991,98.852 289.845,99.037 289.685,99.210 289.512,99.370 289.327,99.516 289.131,99.647 288.925,99.763 288.712,99.861 288.491,99.942 288.264,100.007 288.034,100.052 287.799,100.079 287.564,100.090 8.189,100.090 7.953,100.079 7.719,100.052 7.488,100.007 7.261,99.942 7.040,99.861 6.827,99.763 6.621,99.647 6.425,99.516 6.240,99.370 6.067,99.210 5.907,99.037 5.761,98.852 5.631,98.656 5.515,98.451 5.417,98.237 5.335,98.016 5.271,97.790 5.225,97.558 5.198,97.325 5.188,97.088 5.188,64.326 8.689,64.326 9.462,64.204 10.158,63.849 10.711,63.295 11.066,62.599 11.189,61.826 11.066,61.053 10.711,60.356 10.158,59.803 9.462,59.448 8.690,59.326 5.188,59.326 5.189,8.163 5.198,7.927 5.225,7.693 5.271,7.462 5.335,7.235 5.417,7.014 5.515,6.801 5.631,6.595 5.761,6.399 5.907,6.214 6.067,6.041 6.240,5.881 6.425,5.735 6.621,5.605 6.827,5.489 7.040,5.391 7.261,5.309 7.488,5.245 7.719,5.199 7.953,5.172 8.189,5.162" style="fill:none;stroke-width:0.050000mm;stroke:black"/>
<polygon points="9.907,83.725 9.907,97.725 23.907,97.725 23.907,83.725" style="fill:none;stroke-width:0.050000mm;stroke:black"/>
<polygon points="33.719,83.725 33.719,97.725 47.719,97.725 47.719,83.725" style="fill:none;stroke-width:0.050000mm;stroke:black"/>
<polygon points="57.532,83.725 57.532,97.725 71.532,97.725 71.532,83.725" style="fill:none;stroke-width:0.050000mm;stroke:black"/>
<polygon points="84.320,82.975 84.320,83.956 82.595,83.956 82.595,90.225 81.770,90.225 81.770,93.025 82.595,93.025 82.595,96.255 84.320,96.255 84.320,97.175 87.620,97.175 87.620,96.255 89.345,96.255 89.345,93.025 90.870,93.025 90.870,97.725 104.870,97.725 104.870,93.025 106.395,93.025 106.395,96.255 108.120,96.255 108.120,97.175 111.419,97.175 111.419,96.255 113.145,96.255 113.145,93.025 113.970,93.025 113.970,90.225 113.145,90.225 113.145,83.956 111.419,83.956 111.419,82.975 108.120,82.975 108.120,83.956 106.395,83.956 106.395,88.425 104.870,88.425 104.870,83.725 90.870,83.725 90.870,88.425 89.345,88.425 89.345,83.956 87.620,83.956 87.620,82.975" style="fill:none;stroke-width:0.050000mm;stroke:black"/>
<polygon points="124.207,83.725 124.207,97.725 138.207,97.725 138.207,83.725" style="fill:none;stroke-width:0.050000mm;stroke:black"/>
<polygon points="155.757,82.975 155.757,83.956 154.031,83.956 154.031,90.225 153.207,90.225 153.207,93.025 154.031,93.025 154.031,96.255 155.757,96.255 155.757,97.175 159.056,97.175 159.056,96.255 160.781,96.255 160.781,93.025 162.306,93.025 162.306,97.725 176.306,97.725 176.306,93.025 177.832,93.025 177.832,96.255 179.556,96.255 179.556,97.175 182.857,97.175 182.857,96.255 184.582,96.255 184.582,93.025 185.406,93.025 185.406,90.225 184.582,90.225 184.582,83.956 182.857,83.956 182.857,82.975 179.556,82.975 179.556,83.956 177.832,83.956 177.832,88.425 176.306,88.425 176.306,83.725 162.306,83.725 162.306,88.425 160.781,88.425 160.781,83.956 159.056,83.956 159.056,82.975" style="fill:none;stroke-width:0.050000mm;stroke:black"/>
<polygon points="198.025,83.725 198.025,89.305 197.899,89.056 197.346,88.504 196.649,88.148 195.876,88.026 195.103,88.148 194.406,88.504 193.853,89.056 193.499,89.754 193.376,90.526 193.499,91.299 193.853,91.995 194.406,92.549 195.103,92.903 195.876,93.026 196.649,92.903 197.346,92.549 197.899,91.995 198.025,91.746 198.025,97.725 212.025,97.725 212.025,83.725" style="fill:none;stroke-width:0.050000mm;stroke:black"/>
<polygon points="217.076,83.725 217.076,97.725 231.076,97.725 231.076,83.725" style="fill:none;stroke-width:0.050000mm;stroke:black"/>
<polygon points="236.126,83.725 236.126,97.725 250.126,97.725 250.126,83.725" style="fill:none;stroke-width:0.050000mm;stroke:black"/>
<polygon points="255.175,83.725 255.175,97.725 269.175,97.725 269.175,83.725" style="fill:none;stroke-width:0.050000mm;stroke:black"/>
<polygon points="274.225,83.725 274.225,97.725 288.225,97.725 288.225,83.725" style="fill:none;stroke-width:0.050000mm;stroke:black"/>
<polygon points="19.431,64.675 19.431,69.376 17.907,69.376 17.907,66.145 16.181,66.145 16.181,65.225 12.882,65.225 12.882,66.145 11.157,66.145 11.157,69.376 10.332,69.376 10.332,72.175 11.157,72.175 11.157,78.445 12.882,78.445 12.882,79.425 16.181,79.425 16.181,78.445 17.907,78.445 17.907,73.975 19.431,73.975 19.431,78.675 33.431,78.675 33.431,73.975 34.957,73.975 34.957,78.445 36.681,78.445 36.681,79.425 39.981,79.425 39.981,78.445 41.707,78.445 41.707,72.175 42.532,72.175 42.532,69.376 41.707,69.376 41.707,66.145 39.981,66.145 39.981,65.225 36.681,65.225 36.681,66.145 34.957,66.145 34.957,69.376 33.431,69.376 33.431,64.675" style="fill:none;stroke-width:0.050000mm;stroke:black"/>
<polygon points="50.389,64.675 50.389,78.675 64.389,78.675 64.389,64.675" style="fill:none;stroke-width:0.050000mm;stroke:black"/>
<polygon points="69.439,64.675 69.439,78.675 83.439,78.675 83.439,64.675" style="fill:none;stroke-width:0.050000mm;stroke:black"/>
<polygon points="88.489,64.675 88.489,78.675 102.489,78.675 102.489,64.675" style="fill:none;stroke-width:0.050000mm;stroke:black"/>
<polygon points="107.538,64.675 107.538,78.675 121.538,78.675 121.538,64.675" style="fill:none;stroke-width:0.050000mm;stroke:black"/>
<polygon points="126.589,64.675 126.589,78.675 140.589,78.675 140.589,64.675" style="fill:none;stroke-width:0.050000mm;stroke:black"/>
<polygon points="145.638,64.675 145.638,78.675 159.638,78.675 159.638,64.675" style="fill:none;stroke-width:0.050000mm;stroke:black"/>
<polygon points="164.689,64.675 164.689,78.675 178.689,78.675 178.689,64.675" style="fill:none;stroke-width:0.050000mm;stroke:black"/>
<polygon points="183.739,64.675 183.739,78.675 197.739,78.675 197.739,64.675" style="fill:none;stroke-width:0.050000mm;stroke:black"/>
<polygon points="202.788,64.675 202.788,78.675 216.788,78.675 216.788,64.675" style="fill:none;stroke-width:0.050000mm;stroke:black"/>
<polygon points="221.839,64.675 221.839,78.675 235.839,78.675 235.839,64.675" style="fill:none;stroke-width:0.050000mm;stroke:black"/>
<polygon points="248.031,64.675 248.031,78.675 262.031,78.675 262.031,64.675" style="fill:none;stroke-width:0.050000mm;stroke:black"/>
<polygon points="274.225,64.675 274.225,78.675 288.225,78.675 288.225,64.675" style="fill:none;stroke-width:0.050000mm;stroke:black"/>
<polygon points="262.318,45.626 262.318,50.325 260.794,50.325 260.794,47.096 259.068,47.096 259.068,46.175 255.769,46.175 255.769,47.096 254.044,47.096 254.044,50.325 253.220,50.325 253.220,53.126 254.044,53.126 254.044,59.395 255.769,59.395 255.769,60.376 259.068,60.376 259.068,59.395 260.794,59.395 260.794,54.925 262.318,54.925 262.318,59.626 276.319,59.626 276.319,54.925 277.844,54.925 277.844,59.395 279.569,59.395 279.569,60.376 282.869,60.376 282.869,59.395 284.594,59.395 284.594,53.126 285.419,53.126 285.419,50.325 284.594,50.325 284.594,47.096 282.869,47.096 282.869,46.175 279.569,46.175 279.569,47.096 277.844,47.096 277.844,50.325 276.319,50.325 276.319,45.626" style="fill:none;stroke-width:0.050000mm;stroke:black"/>
<polygon points="14.670,45.626 14.670,59.626 28.670,59.626 28.670,45.626" style="fill:none;stroke-width:0.050000mm;stroke:black"/>
<polygon points="40.864,45.626 40.864,59.626 54.864,59.626 54.864,45.626" style="fill:none;stroke-width:0.050000mm;stroke:black"/>
<polygon points="59.912,45.626 59.912,59.626 73.913,59.626 73.913,45.626" style="fill:none;stroke-width:0.050000mm;stroke:black"/>
<polygon points="78.963,45.626 78.963,59.626 92.963,59.626 92.963,45.626" style="fill:none;stroke-width:0.050000mm;stroke:black"/>
<polygon points="98.013,45.626 98.013,59.626 112.013,59.626 112.013,45.626" style="fill:none;stroke-width:0.050000mm;stroke:black"/>
<polygon points="117.062,45.626 117.062,59.626 131.064,59.626 131.064,45.626" style="fill:none;stroke-width:0.050000mm;stroke:black"/>
<polygon points="136.113,45.626 136.113,59.626 150.113,59.626 150.113,45.626" style="fill:none;stroke-width:0.050000mm;stroke:black"/>
<polygon points="155.163,45.626 155.163,59.626 169.163,59.626 169.163,45.626" style="fill:none;stroke-width:0.050000mm;stroke:black"/>
<polygon points="174.214,45.626 174.214,59.626 188.214,59.626 188.214,45.626" style="fill:none;stroke-width:0.050000mm;stroke:black"/>
<polygon points="193.263,45.626 193.263,59.626 207.263,59.626 207.263,45.626" style="fill:none;stroke-width:0.050000mm;stroke:black"/>
<polygon points="212.314,45.626 212.314,59.626 226.314,59.626 226.314,45.626" style="fill:none;stroke-width:0.050000mm;stroke:black"/>
<polygon points="231.364,45.626 231.364,59.626 245.364,59.626 245.364,45.626" style="fill:none;stroke-width:0.050000mm;stroke:black"/>
<polygon points="132.804,50.248 132.107,50.603 131.554,51.157 131.197,51.853 131.077,52.627 131.197,53.398 131.554,54.096 132.107,54.648 132.804,55.004 133.577,55.127 134.349,55.004 135.046,54.648 135.599,54.096 135.953,53.398 136.077,52.627 135.953,51.853 135.599,51.157 135.046,50.603 134.349,50.248 133.577,50.127" style="fill:none;stroke-width:0.050000mm;stroke:black"/>
<polygon points="12.289,26.575 12.289,40.575 26.289,40.575 26.289,26.575" style="fill:none;stroke-width:0.050000mm;stroke:black"/>
<polygon points="36.100,26.575 36.100,40.575 50.100,40.575 50.100,26.575" style="fill:none;stroke-width:0.050000mm;stroke:black"/>
<polygon points="55.151,26.575 55.151,40.575 69.151,40.575 69.151,26.575" style="fill:none;stroke-width:0.050000mm;stroke:black"/>
<polygon points="74.201,26.575 74.201,40.575 88.201,40.575 88.201,26.575" style="fill:none;stroke-width:0.050000mm;stroke:black"/>
<polygon points="93.251,26.575 93.251,40.575 107.251,40.575 107.251,26.575" style="fill:none;stroke-width:0.050000mm;stroke:black"/>
<polygon points="112.300,26.575 112.300,40.575 126.300,40.575 126.300,26.575" style="fill:none;stroke-width:0.050000mm;stroke:black"/>
<polygon points="131.351,26.575 131.351,40.575 145.351,40.575 145.351,26.575" style="fill:none;stroke-width:0.050000mm;stroke:black"/>
<polygon points="150.400,26.575 150.400,40.575 164.400,40.575 164.400,26.575" style="fill:none;stroke-width:0.050000mm;stroke:black"/>
<polygon points="169.451,26.575 169.451,40.575 183.451,40.575 183.451,26.575" style="fill:none;stroke-width:0.050000mm;stroke:black"/>
<polygon points="188.501,26.575 188.501,40.575 202.501,40.575 202.501,26.575" style="fill:none;stroke-width:0.050000mm;stroke:black"/>
<polygon points="207.550,26.575 207.550,40.575 221.550,40.575 221.550,26.575" style="fill:none;stroke-width:0.050000mm;stroke:black"/>
<polygon points="226.601,26.575 226.601,40.575 240.601,40.575 240.601,26.575" style="fill:none;stroke-width:0.050000mm;stroke:black"/>
<polygon points="245.650,26.575 245.650,40.575 259.650,40.575 259.650,26.575" style="fill:none;stroke-width:0.050000mm;stroke:black"/>
<polygon points="269.463,26.575 269.463,40.575 283.463,40.575 283.463,26.575" style="fill:none;stroke-width:0.050000mm;stroke:black"/>
<polygon points="29.803,30.848 29.107,31.203 28.553,31.756 28.199,32.453 28.077,33.227 28.199,33.998 28.553,34.695 29.107,35.248 29.803,35.603 30.577,35.727 31.349,35.603 32.046,35.248 32.597,34.695 32.954,33.998 33.076,33.227 32.954,32.453 32.597,31.756 32.046,31.203 31.349,30.848 30.577,30.726" style="fill:none;stroke-width:0.050000mm;stroke:black"/>
<polygon points="264.653,30.848 263.956,31.203 263.403,31.756 263.048,32.453 262.926,33.227 263.048,33.998 263.403,34.695 263.956,35.248 264.653,35.603 265.426,35.727 266.198,35.603 266.895,35.248 267.448,34.695 267.803,33.998 267.926,33.227 267.803,32.453 267.448,31.756 266.895,31.203 266.198,30.848 265.426,30.726" style="fill:none;stroke-width:0.050000mm;stroke:black"/>
<polygon points="264.700,7.525 264.700,12.225 263.175,12.225 263.175,8.995 261.450,8.995 261.450,8.075 258.150,8.075 258.150,8.995 256.425,8.995 256.425,12.225 255.601,12.225 255.601,15.025 256.425,15.025 256.425,21.296 258.150,21.296 258.150,22.275 261.450,22.275 261.450,21.296 263.175,21.296 263.175,16.825 264.700,16.825 264.700,21.525 278.700,21.525 278.700,16.825 280.225,16.825 280.225,21.296 281.950,21.296 281.950,22.275 285.250,22.275 285.250,21.296 286.975,21.296 286.975,15.025 287.800,15.025 287.800,12.225 286.975,12.225 286.975,8.995 285.250,8.995 285.250,8.075 281.950,8.075 281.950,8.995 280.225,8.995 280.225,12.225 278.700,12.225 278.700,7.525" style="fill:none;stroke-width:0.050000mm;stroke:black"/>
<polygon points="7.526,7.525 7.526,21.525 21.526,21.525 21.526,7.525" style="fill:none;stroke-width:0.050000mm;stroke:black"/>
<polygon points="26.576,7.525 26.576,21.525 40.576,21.525 40.576,7.525" style="fill:none;stroke-width:0.050000mm;stroke:black"/>
<polygon points="45.626,7.525 45.626,21.525 59.626,21.525 59.626,7.525" style="fill:none;stroke-width:0.050000mm;stroke:black"/>
<polygon points="64.675,7.525 64.675,21.525 78.675,21.525 78.675,7.525" style="fill:none;stroke-width:0.050000mm;stroke:black"/>
<polygon points="83.726,7.525 83.726,21.525 97.726,21.525 97.726,7.525" style="fill:none;stroke-width:0.050000mm;stroke:black"/>
<polygon points="102.776,7.525 102.776,21.525 116.776,21.525 116.776,7.525" style="fill:none;stroke-width:0.050000mm;stroke:black"/>
<polygon points="121.826,7.525 121.826,21.525 135.826,21.525 135.826,7.525" style="fill:none;stroke-width:0.050000mm;stroke:black"/>
<polygon points="140.876,7.525 140.876,21.525 154.876,21.525 154.876,7.525" style="fill:none;stroke-width:0.050000mm;stroke:black"/>
<polygon points="159.925,7.525 159.925,21.525 173.925,21.525 173.925,7.525" style="fill:none;stroke-width:0.050000mm;stroke:black"/>
<polygon points="178.976,7.525 178.976,21.525 192.976,21.525 192.976,7.525" style="fill:none;stroke-width:0.050000mm;stroke:black"/>
<polygon points="198.025,7.525 198.025,21.525 212.025,21.525 212.025,7.525" style="fill:none;stroke-width:0.050000mm;stroke:black"/>
<polygon points="217.076,7.525 217.076,21.525 231.076,21.525 231.076,7.525" style="fill:none;stroke-width:0.050000mm;stroke:black"/>
<polygon points="236.126,7.525 236.126,21.525 250.126,21.525 250.126,7.525" style="fill:none;stroke-width:0.050000mm;stroke:black"/>
</svg>
