0
SECTION
2
HEADER
9
$INSUNITS
70
4
0
ENDSEC
0
SECTION
2
TABLES
0
TABLE
2
LTYPE
0
LTYPE
72
65
70
64
2
CONTINUOUS
3
______
73
0
40
0
0
ENDTAB
0
TABLE
2
LAYER
0
ENDTAB
0
ENDSEC
0
SECTION
2
ENTITIES
0
LINE
8
0
10
3.026
20
-2.526
11
16.024
21
-2.526
0
LINE
8
0
10
3.026
20
-16.524
11
16.024
21
-16.524
0
LINE
8
0
10
2.526
20
-3.026
11
2.526
21
-16.024
0
LINE
8
0
10
16.524
20
-3.026
11
16.524
21
-16.024
0
ARC
8
0
10
3.026
20
-3.026
40
0.5
50
90
51
180
0
ARC
8
0
10
16.024
20
-3.026
40
0.5
50
0
51
90
0
ARC
8
0
10
3.026
20
-16.024
40
0.5
50
180
51
270
0
ARC
8
0
10
16.024
20
-16.024
40
0.5
50
270
51
0
0
LINE
8
0
10
22.076
20
-2.526
11
35.074
21
-2.526
0
LINE
8
0
10
22.076
20
-16.524
11
35.074
21
-16.524
0
LINE
8
0
10
21.576
20
-3.026
11
21.576
21
-16.024
0
LINE
8
0
10
35.574
20
-3.026
11
35.574
21
-16.024
0
ARC
8
0
10
22.076
20
-3.026
40
0.5
50
90
51
180
0
ARC
8
0
10
35.074
20
-3.026
40
0.5
50
0
51
90
0
ARC
8
0
10
22.076
20
-16.024
40
0.5
50
180
51
270
0
ARC
8
0
10
35.074
20
-16.024
40
0.5
50
270
51
0
0
LINE
8
0
10
41.126
20
-2.526
11
54.124
21
-2.526
0
LINE
8
0
10
41.126
20
-16.524
11
54.124
21
-16.524
0
LINE
8
0
10
40.626
20
-3.026
11
40.626
21
-16.024
0
LINE
8
0
10
54.624
20
-3.026
11
54.624
21
-16.024
0
ARC
8
0
10
41.126
20
-3.026
40
0.5
50
90
51
180
0
ARC
8
0
10
54.124
20
-3.026
40
0.5
50
0
51
90
0
ARC
8
0
10
41.126
20
-16.024
40
0.5
50
180
51
270
0
ARC
8
0
10
54.124
20
-16.024
40
0.5
50
270
51
0
0
LINE
8
0
10
60.176
20
-2.526
11
73.174
21
-2.526
0
LINE
8
0
10
60.176
20
-16.524
11
73.174
21
-16.524
0
LINE
8
0
10
59.676
20
-3.026
11
59.676
21
-16.024
0
LINE
8
0
10
73.674
20
-3.026
11
73.674
21
-16.024
0
ARC
8
0
10
60.176
20
-3.026
40
0.5
50
90
51
180
0
ARC
8
0
10
73.174
20
-3.026
40
0.5
50
0
51
90
0
ARC
8
0
10
60.176
20
-16.024
40
0.5
50
180
51
270
0
ARC
8
0
10
73.174
20
-16.024
40
0.5
50
270
51
0
0
LINE
8
0
10
79.226
20
-2.526
11
92.224
21
-2.526
0
LINE
8
0
10
79.226
20
-16.524
11
92.224
21
-16.524
0
LINE
8
0
10
78.726
20
-3.026
11
78.726
21
-16.024
0
LINE
8
0
10
92.724
20
-3.026
11
92.724
21
-16.024
0
ARC
8
0
10
79.226
20
-3.026
40
0.5
50
90
51
180
0
ARC
8
0
10
92.224
20
-3.026
40
0.5
50
0
51
90
0
ARC
8
0
10
79.226
20
-16.024
40
0.5
50
180
51
270
0
ARC
8
0
10
92.224
20
-16.024
40
0.5
50
270
51
0
0
LINE
8
0
10
98.276
20
-2.526
11
111.274
21
-2.526
0
LINE
8
0
10
98.276
20
-16.524
11
111.274
21
-16.524
0
LINE
8
0
10
97.776
20
-3.026
11
97.776
21
-16.024
0
LINE
8
0
10
111.774
20
-3.026
11
111.774
21
-16.024
0
ARC
8
0
10
98.276
20
-3.026
40
0.5
50
90
51
180
0
ARC
8
0
10
111.274
20
-3.026
40
0.5
50
0
51
90
0
ARC
8
0
10
98.276
20
-16.024
40
0.5
50
180
51
270
0
ARC
8
0
10
111.274
20
-16.024
40
0.5
50
270
51
0
0
LINE
8
0
10
117.326
20
-2.526
11
130.324
21
-2.526
0
LINE
8
0
10
117.326
20
-16.524
11
130.324
21
-16.524
0
LINE
8
0
10
116.826
20
-3.026
11
116.826
21
-16.024
0
LINE
8
0
10
130.824
20
-3.026
11
130.824
21
-16.024
0
ARC
8
0
10
117.326
20
-3.026
40
0.5
50
90
51
180
0
ARC
8
0
10
130.324
20
-3.026
40
0.5
50
0
51
90
0
ARC
8
0
10
117.326
20
-16.024
40
0.5
50
180
51
270
0
ARC
8
0
10
130.324
20
-16.024
40
0.5
50
270
51
0
0
LINE
8
0
10
136.376
20
-2.526
11
149.374
21
-2.526
0
LINE
8
0
10
136.376
20
-16.524
11
149.374
21
-16.524
0
LINE
8
0
10
135.876
20
-3.026
11
135.876
21
-16.024
0
LINE
8
0
10
149.874
20
-3.026
11
149.874
21
-16.024
0
ARC
8
0
10
136.376
20
-3.026
40
0.5
50
90
51
180
0
ARC
8
0
10
149.374
20
-3.026
40
0.5
50
0
51
90
0
ARC
8
0
10
136.376
20
-16.024
40
0.5
50
180
51
270
0
ARC
8
0
10
149.374
20
-16.024
40
0.5
50
270
51
0
0
LINE
8
0
10
155.426
20
-2.526
11
168.424
21
-2.526
0
LINE
8
0
10
155.426
20
-16.524
11
168.424
21
-16.524
0
LINE
8
0
10
154.926
20
-3.026
11
154.926
21
-16.024
0
LINE
8
0
10
168.924
20
-3.026
11
168.924
21
-16.024
0
ARC
8
0
10
155.426
20
-3.026
40
0.5
50
90
51
180
0
ARC
8
0
10
168.424
20
-3.026
40
0.5
50
0
51
90
0
ARC
8
0
10
155.426
20
-16.024
40
0.5
50
180
51
270
0
ARC
8
0
10
168.424
20
-16.024
40
0.5
50
270
51
0
0
LINE
8
0
10
174.476
20
-2.526
11
187.474
21
-2.526
0
LINE
8
0
10
174.476
20
-16.524
11
187.474
21
-16.524
0
LINE
8
0
10
173.976
20
-3.026
11
173.976
21
-16.024
0
LINE
8
0
10
187.974
20
-3.026
11
187.974
21
-16.024
0
ARC
8
0
10
174.476
20
-3.026
40
0.5
50
90
51
180
0
ARC
8
0
10
187.474
20
-3.026
40
0.5
50
0
51
90
0
ARC
8
0
10
174.476
20
-16.024
40
0.5
50
180
51
270
0
ARC
8
0
10
187.474
20
-16.024
40
0.5
50
270
51
0
0
LINE
8
0
10
193.526
20
-2.526
11
206.524
21
-2.526
0
LINE
8
0
10
193.526
20
-16.524
11
206.524
21
-16.524
0
LINE
8
0
10
193.026
20
-3.026
11
193.026
21
-16.024
0
LINE
8
0
10
207.024
20
-3.026
11
207.024
21
-16.024
0
ARC
8
0
10
193.526
20
-3.026
40
0.5
50
90
51
180
0
ARC
8
0
10
206.524
20
-3.026
40
0.5
50
0
51
90
0
ARC
8
0
10
193.526
20
-16.024
40
0.5
50
180
51
270
0
ARC
8
0
10
206.524
20
-16.024
40
0.5
50
270
51
0
0
LINE
8
0
10
212.576
20
-2.526
11
225.574
21
-2.526
0
LINE
8
0
10
212.576
20
-16.524
11
225.574
21
-16.524
0
LINE
8
0
10
212.076
20
-3.026
11
212.076
21
-16.024
0
LINE
8
0
10
226.074
20
-3.026
11
226.074
21
-16.024
0
ARC
8
0
10
212.576
20
-3.026
40
0.5
50
90
51
180
0
ARC
8
0
10
225.574
20
-3.026
40
0.5
50
0
51
90
0
ARC
8
0
10
212.576
20
-16.024
40
0.5
50
180
51
270
0
ARC
8
0
10
225.574
20
-16.024
40
0.5
50
270
51
0
0
LINE
8
0
10
231.626
20
-2.526
11
244.624
21
-2.526
0
LINE
8
0
10
231.626
20
-16.524
11
244.624
21
-16.524
0
LINE
8
0
10
231.126
20
-3.026
11
231.126
21
-16.024
0
LINE
8
0
10
245.124
20
-3.026
11
245.124
21
-16.024
0
ARC
8
0
10
231.626
20
-3.026
40
0.5
50
90
51
180
0
ARC
8
0
10
244.624
20
-3.026
40
0.5
50
0
51
90
0
ARC
8
0
10
231.626
20
-16.024
40
0.5
50
180
51
270
0
ARC
8
0
10
244.624
20
-16.024
40
0.5
50
270
51
0
0
LINE
8
0
10
260.201
20
-2.526
11
273.199
21
-2.526
0
LINE
8
0
10
260.201
20
-16.524
11
273.199
21
-16.524
0
LINE
8
0
10
259.701
20
-3.026
11
259.701
21
-16.024
0
LINE
8
0
10
273.699
20
-3.026
11
273.699
21
-16.024
0
ARC
8
0
10
260.201
20
-3.026
40
0.5
50
90
51
180
0
ARC
8
0
10
273.199
20
-3.026
40
0.5
50
0
51
90
0
ARC
8
0
10
260.201
20
-16.024
40
0.5
50
180
51
270
0
ARC
8
0
10
273.199
20
-16.024
40
0.5
50
270
51
0
0
LINE
8
0
10
251.763
20
-3.526
11
257.761
21
-3.526
0
LINE
8
0
10
251.763
20
-18.524
11
257.761
21
-18.524
0
LINE
8
0
10
251.263
20
-4.026
11
251.263
21
-18.024
0
LINE
8
0
10
258.261
20
-4.026
11
258.261
21
-18.024
0
ARC
8
0
10
251.763
20
-4.026
40
0.5
50
90
51
180
0
ARC
8
0
10
257.761
20
-4.026
40
0.5
50
0
51
90
0
ARC
8
0
10
251.763
20
-18.024
40
0.5
50
180
51
270
0
ARC
8
0
10
257.761
20
-18.024
40
0.5
50
270
51
0
0
LINE
8
0
10
275.639
20
-3.526
11
281.637
21
-3.526
0
LINE
8
0
10
275.639
20
-18.524
11
281.637
21
-18.524
0
LINE
8
0
10
275.139
20
-4.026
11
275.139
21
-18.024
0
LINE
8
0
10
282.137
20
-4.026
11
282.137
21
-18.024
0
ARC
8
0
10
275.639
20
-4.026
40
0.5
50
90
51
180
0
ARC
8
0
10
281.637
20
-4.026
40
0.5
50
0
51
90
0
ARC
8
0
10
275.639
20
-18.024
40
0.5
50
180
51
270
0
ARC
8
0
10
281.637
20
-18.024
40
0.5
50
270
51
0
0
LINE
8
0
10
7.7885
20
-21.576
11
20.7865
21
-21.576
0
LINE
8
0
10
7.7885
20
-35.574
11
20.7865
21
-35.574
0
LINE
8
0
10
7.2885
20
-22.076
11
7.2885
21
-35.074
0
LINE
8
0
10
21.2865
20
-22.076
11
21.2865
21
-35.074
0
ARC
8
0
10
7.7885
20
-22.076
40
0.5
50
90
51
180
0
ARC
8
0
10
20.7865
20
-22.076
40
0.5
50
0
51
90
0
ARC
8
0
10
7.7885
20
-35.074
40
0.5
50
180
51
270
0
ARC
8
0
10
20.7865
20
-35.074
40
0.5
50
270
51
0
0
LINE
8
0
10
31.601
20
-21.576
11
44.599
21
-21.576
0
LINE
8
0
10
31.601
20
-35.574
11
44.599
21
-35.574
0
LINE
8
0
10
31.101
20
-22.076
11
31.101
21
-35.074
0
LINE
8
0
10
45.099
20
-22.076
11
45.099
21
-35.074
0
ARC
8
0
10
31.601
20
-22.076
40
0.5
50
90
51
180
0
ARC
8
0
10
44.599
20
-22.076
40
0.5
50
0
51
90
0
ARC
8
0
10
31.601
20
-35.074
40
0.5
50
180
51
270
0
ARC
8
0
10
44.599
20
-35.074
40
0.5
50
270
51
0
0
LINE
8
0
10
50.651
20
-21.576
11
63.649
21
-21.576
0
LINE
8
0
10
50.651
20
-35.574
11
63.649
21
-35.574
0
LINE
8
0
10
50.151
20
-22.076
11
50.151
21
-35.074
0
LINE
8
0
10
64.149
20
-22.076
11
64.149
21
-35.074
0
ARC
8
0
10
50.651
20
-22.076
40
0.5
50
90
51
180
0
ARC
8
0
10
63.649
20
-22.076
40
0.5
50
0
51
90
0
ARC
8
0
10
50.651
20
-35.074
40
0.5
50
180
51
270
0
ARC
8
0
10
63.649
20
-35.074
40
0.5
50
270
51
0
0
LINE
8
0
10
69.701
20
-21.576
11
82.699
21
-21.576
0
LINE
8
0
10
69.701
20
-35.574
11
82.699
21
-35.574
0
LINE
8
0
10
69.201
20
-22.076
11
69.201
21
-35.074
0
LINE
8
0
10
83.199
20
-22.076
11
83.199
21
-35.074
0
ARC
8
0
10
69.701
20
-22.076
40
0.5
50
90
51
180
0
ARC
8
0
10
82.699
20
-22.076
40
0.5
50
0
51
90
0
ARC
8
0
10
69.701
20
-35.074
40
0.5
50
180
51
270
0
ARC
8
0
10
82.699
20
-35.074
40
0.5
50
270
51
0
0
LINE
8
0
10
88.751
20
-21.576
11
101.749
21
-21.576
0
LINE
8
0
10
88.751
20
-35.574
11
101.749
21
-35.574
0
LINE
8
0
10
88.251
20
-22.076
11
88.251
21
-35.074
0
LINE
8
0
10
102.249
20
-22.076
11
102.249
21
-35.074
0
ARC
8
0
10
88.751
20
-22.076
40
0.5
50
90
51
180
0
ARC
8
0
10
101.749
20
-22.076
40
0.5
50
0
51
90
0
ARC
8
0
10
88.751
20
-35.074
40
0.5
50
180
51
270
0
ARC
8
0
10
101.749
20
-35.074
40
0.5
50
270
51
0
0
LINE
8
0
10
107.801
20
-21.576
11
120.799
21
-21.576
0
LINE
8
0
10
107.801
20
-35.574
11
120.799
21
-35.574
0
LINE
8
0
10
107.301
20
-22.076
11
107.301
21
-35.074
0
LINE
8
0
10
121.299
20
-22.076
11
121.299
21
-35.074
0
ARC
8
0
10
107.801
20
-22.076
40
0.5
50
90
51
180
0
ARC
8
0
10
120.799
20
-22.076
40
0.5
50
0
51
90
0
ARC
8
0
10
107.801
20
-35.074
40
0.5
50
180
51
270
0
ARC
8
0
10
120.799
20
-35.074
40
0.5
50
270
51
0
0
LINE
8
0
10
126.851
20
-21.576
11
139.849
21
-21.576
0
LINE
8
0
10
126.851
20
-35.574
11
139.849
21
-35.574
0
LINE
8
0
10
126.351
20
-22.076
11
126.351
21
-35.074
0
LINE
8
0
10
140.349
20
-22.076
11
140.349
21
-35.074
0
ARC
8
0
10
126.851
20
-22.076
40
0.5
50
90
51
180
0
ARC
8
0
10
139.849
20
-22.076
40
0.5
50
0
51
90
0
ARC
8
0
10
126.851
20
-35.074
40
0.5
50
180
51
270
0
ARC
8
0
10
139.849
20
-35.074
40
0.5
50
270
51
0
0
LINE
8
0
10
145.901
20
-21.576
11
158.899
21
-21.576
0
LINE
8
0
10
145.901
20
-35.574
11
158.899
21
-35.574
0
LINE
8
0
10
145.401
20
-22.076
11
145.401
21
-35.074
0
LINE
8
0
10
159.399
20
-22.076
11
159.399
21
-35.074
0
ARC
8
0
10
145.901
20
-22.076
40
0.5
50
90
51
180
0
ARC
8
0
10
158.899
20
-22.076
40
0.5
50
0
51
90
0
ARC
8
0
10
145.901
20
-35.074
40
0.5
50
180
51
270
0
ARC
8
0
10
158.899
20
-35.074
40
0.5
50
270
51
0
0
LINE
8
0
10
164.951
20
-21.576
11
177.949
21
-21.576
0
LINE
8
0
10
164.951
20
-35.574
11
177.949
21
-35.574
0
LINE
8
0
10
164.451
20
-22.076
11
164.451
21
-35.074
0
LINE
8
0
10
178.449
20
-22.076
11
178.449
21
-35.074
0
ARC
8
0
10
164.951
20
-22.076
40
0.5
50
90
51
180
0
ARC
8
0
10
177.949
20
-22.076
40
0.5
50
0
51
90
0
ARC
8
0
10
164.951
20
-35.074
40
0.5
50
180
51
270
0
ARC
8
0
10
177.949
20
-35.074
40
0.5
50
270
51
0
0
LINE
8
0
10
184.001
20
-21.576
11
196.999
21
-21.576
0
LINE
8
0
10
184.001
20
-35.574
11
196.999
21
-35.574
0
LINE
8
0
10
183.501
20
-22.076
11
183.501
21
-35.074
0
LINE
8
0
10
197.499
20
-22.076
11
197.499
21
-35.074
0
ARC
8
0
10
184.001
20
-22.076
40
0.5
50
90
51
180
0
ARC
8
0
10
196.999
20
-22.076
40
0.5
50
0
51
90
0
ARC
8
0
10
184.001
20
-35.074
40
0.5
50
180
51
270
0
ARC
8
0
10
196.999
20
-35.074
40
0.5
50
270
51
0
0
LINE
8
0
10
203.051
20
-21.576
11
216.049
21
-21.576
0
LINE
8
0
10
203.051
20
-35.574
11
216.049
21
-35.574
0
LINE
8
0
10
202.551
20
-22.076
11
202.551
21
-35.074
0
LINE
8
0
10
216.549
20
-22.076
11
216.549
21
-35.074
0
ARC
8
0
10
203.051
20
-22.076
40
0.5
50
90
51
180
0
ARC
8
0
10
216.049
20
-22.076
40
0.5
50
0
51
90
0
ARC
8
0
10
203.051
20
-35.074
40
0.5
50
180
51
270
0
ARC
8
0
10
216.049
20
-35.074
40
0.5
50
270
51
0
0
LINE
8
0
10
222.101
20
-21.576
11
235.099
21
-21.576
0
LINE
8
0
10
222.101
20
-35.574
11
235.099
21
-35.574
0
LINE
8
0
10
221.601
20
-22.076
11
221.601
21
-35.074
0
LINE
8
0
10
235.599
20
-22.076
11
235.599
21
-35.074
0
ARC
8
0
10
222.101
20
-22.076
40
0.5
50
90
51
180
0
ARC
8
0
10
235.099
20
-22.076
40
0.5
50
0
51
90
0
ARC
8
0
10
222.101
20
-35.074
40
0.5
50
180
51
270
0
ARC
8
0
10
235.099
20
-35.074
40
0.5
50
270
51
0
0
LINE
8
0
10
241.151
20
-21.576
11
254.149
21
-21.576
0
LINE
8
0
10
241.151
20
-35.574
11
254.149
21
-35.574
0
LINE
8
0
10
240.651
20
-22.076
11
240.651
21
-35.074
0
LINE
8
0
10
254.649
20
-22.076
11
254.649
21
-35.074
0
ARC
8
0
10
241.151
20
-22.076
40
0.5
50
90
51
180
0
ARC
8
0
10
254.149
20
-22.076
40
0.5
50
0
51
90
0
ARC
8
0
10
241.151
20
-35.074
40
0.5
50
180
51
270
0
ARC
8
0
10
254.149
20
-35.074
40
0.5
50
270
51
0
0
LINE
8
0
10
264.9635
20
-21.576
11
277.9615
21
-21.576
0
LINE
8
0
10
264.9635
20
-35.574
11
277.9615
21
-35.574
0
LINE
8
0
10
264.4635
20
-22.076
11
264.4635
21
-35.074
0
LINE
8
0
10
278.4615
20
-22.076
11
278.4615
21
-35.074
0
ARC
8
0
10
264.9635
20
-22.076
40
0.5
50
90
51
180
0
ARC
8
0
10
277.9615
20
-22.076
40
0.5
50
0
51
90
0
ARC
8
0
10
264.9635
20
-35.074
40
0.5
50
180
51
270
0
ARC
8
0
10
277.9615
20
-35.074
40
0.5
50
270
51
0
0
LINE
8
0
10
10.16975
20
-40.626
11
23.16775
21
-40.626
0
LINE
8
0
10
10.16975
20
-54.624
11
23.16775
21
-54.624
0
LINE
8
0
10
9.66975
20
-41.126
11
9.66975
21
-54.124
0
LINE
8
0
10
23.66775
20
-41.126
11
23.66775
21
-54.124
0
ARC
8
0
10
10.16975
20
-41.126
40
0.5
50
90
51
180
0
ARC
8
0
10
23.16775
20
-41.126
40
0.5
50
0
51
90
0
ARC
8
0
10
10.16975
20
-54.124
40
0.5
50
180
51
270
0
ARC
8
0
10
23.16775
20
-54.124
40
0.5
50
270
51
0
0
LINE
8
0
10
36.3635
20
-40.626
11
49.3615
21
-40.626
0
LINE
8
0
10
36.3635
20
-54.624
11
49.3615
21
-54.624
0
LINE
8
0
10
35.8635
20
-41.126
11
35.8635
21
-54.124
0
LINE
8
0
10
49.8615
20
-41.126
11
49.8615
21
-54.124
0
ARC
8
0
10
36.3635
20
-41.126
40
0.5
50
90
51
180
0
ARC
8
0
10
49.3615
20
-41.126
40
0.5
50
0
51
90
0
ARC
8
0
10
36.3635
20
-54.124
40
0.5
50
180
51
270
0
ARC
8
0
10
49.3615
20
-54.124
40
0.5
50
270
51
0
0
LINE
8
0
10
55.4135
20
-40.626
11
68.4115
21
-40.626
0
LINE
8
0
10
55.4135
20
-54.624
11
68.4115
21
-54.624
0
LINE
8
0
10
54.9135
20
-41.126
11
54.9135
21
-54.124
0
LINE
8
0
10
68.9115
20
-41.126
11
68.9115
21
-54.124
0
ARC
8
0
10
55.4135
20
-41.126
40
0.5
50
90
51
180
0
ARC
8
0
10
68.4115
20
-41.126
40
0.5
50
0
51
90
0
ARC
8
0
10
55.4135
20
-54.124
40
0.5
50
180
51
270
0
ARC
8
0
10
68.4115
20
-54.124
40
0.5
50
270
51
0
0
LINE
8
0
10
74.4635
20
-40.626
11
87.4615
21
-40.626
0
LINE
8
0
10
74.4635
20
-54.624
11
87.4615
21
-54.624
0
LINE
8
0
10
73.9635
20
-41.126
11
73.9635
21
-54.124
0
LINE
8
0
10
87.9615
20
-41.126
11
87.9615
21
-54.124
0
ARC
8
0
10
74.4635
20
-41.126
40
0.5
50
90
51
180
0
ARC
8
0
10
87.4615
20
-41.126
40
0.5
50
0
51
90
0
ARC
8
0
10
74.4635
20
-54.124
40
0.5
50
180
51
270
0
ARC
8
0
10
87.4615
20
-54.124
40
0.5
50
270
51
0
0
LINE
8
0
10
93.5135
20
-40.626
11
106.5115
21
-40.626
0
LINE
8
0
10
93.5135
20
-54.624
11
106.5115
21
-54.624
0
LINE
8
0
10
93.0135
20
-41.126
11
93.0135
21
-54.124
0
LINE
8
0
10
107.0115
20
-41.126
11
107.0115
21
-54.124
0
ARC
8
0
10
93.5135
20
-41.126
40
0.5
50
90
51
180
0
ARC
8
0
10
106.5115
20
-41.126
40
0.5
50
0
51
90
0
ARC
8
0
10
93.5135
20
-54.124
40
0.5
50
180
51
270
0
ARC
8
0
10
106.5115
20
-54.124
40
0.5
50
270
51
0
0
LINE
8
0
10
112.5635
20
-40.626
11
125.5615
21
-40.626
0
LINE
8
0
10
112.5635
20
-54.624
11
125.5615
21
-54.624
0
LINE
8
0
10
112.0635
20
-41.126
11
112.0635
21
-54.124
0
LINE
8
0
10
126.0615
20
-41.126
11
126.0615
21
-54.124
0
ARC
8
0
10
112.5635
20
-41.126
40
0.5
50
90
51
180
0
ARC
8
0
10
125.5615
20
-41.126
40
0.5
50
0
51
90
0
ARC
8
0
10
112.5635
20
-54.124
40
0.5
50
180
51
270
0
ARC
8
0
10
125.5615
20
-54.124
40
0.5
50
270
51
0
0
LINE
8
0
10
131.6135
20
-40.626
11
144.6115
21
-40.626
0
LINE
8
0
10
131.6135
20
-54.624
11
144.6115
21
-54.624
0
LINE
8
0
10
131.1135
20
-41.126
11
131.1135
21
-54.124
0
LINE
8
0
10
145.1115
20
-41.126
11
145.1115
21
-54.124
0
ARC
8
0
10
131.6135
20
-41.126
40
0.5
50
90
51
180
0
ARC
8
0
10
144.6115
20
-41.126
40
0.5
50
0
51
90
0
ARC
8
0
10
131.6135
20
-54.124
40
0.5
50
180
51
270
0
ARC
8
0
10
144.6115
20
-54.124
40
0.5
50
270
51
0
0
LINE
8
0
10
150.6635
20
-40.626
11
163.6615
21
-40.626
0
LINE
8
0
10
150.6635
20
-54.624
11
163.6615
21
-54.624
0
LINE
8
0
10
150.1635
20
-41.126
11
150.1635
21
-54.124
0
LINE
8
0
10
164.1615
20
-41.126
11
164.1615
21
-54.124
0
ARC
8
0
10
150.6635
20
-41.126
40
0.5
50
90
51
180
0
ARC
8
0
10
163.6615
20
-41.126
40
0.5
50
0
51
90
0
ARC
8
0
10
150.6635
20
-54.124
40
0.5
50
180
51
270
0
ARC
8
0
10
163.6615
20
-54.124
40
0.5
50
270
51
0
0
LINE
8
0
10
169.7135
20
-40.626
11
182.7115
21
-40.626
0
LINE
8
0
10
169.7135
20
-54.624
11
182.7115
21
-54.624
0
LINE
8
0
10
169.2135
20
-41.126
11
169.2135
21
-54.124
0
LINE
8
0
10
183.2115
20
-41.126
11
183.2115
21
-54.124
0
ARC
8
0
10
169.7135
20
-41.126
40
0.5
50
90
51
180
0
ARC
8
0
10
182.7115
20
-41.126
40
0.5
50
0
51
90
0
ARC
8
0
10
169.7135
20
-54.124
40
0.5
50
180
51
270
0
ARC
8
0
10
182.7115
20
-54.124
40
0.5
50
270
51
0
0
LINE
8
0
10
188.7635
20
-40.626
11
201.7615
21
-40.626
0
LINE
8
0
10
188.7635
20
-54.624
11
201.7615
21
-54.624
0
LINE
8
0
10
188.2635
20
-41.126
11
188.2635
21
-54.124
0
LINE
8
0
10
202.2615
20
-41.126
11
202.2615
21
-54.124
0
ARC
8
0
10
188.7635
20
-41.126
40
0.5
50
90
51
180
0
ARC
8
0
10
201.7615
20
-41.126
40
0.5
50
0
51
90
0
ARC
8
0
10
188.7635
20
-54.124
40
0.5
50
180
51
270
0
ARC
8
0
10
201.7615
20
-54.124
40
0.5
50
270
51
0
0
LINE
8
0
10
207.8135
20
-40.626
11
220.8115
21
-40.626
0
LINE
8
0
10
207.8135
20
-54.624
11
220.8115
21
-54.624
0
LINE
8
0
10
207.3135
20
-41.126
11
207.3135
21
-54.124
0
LINE
8
0
10
221.3115
20
-41.126
11
221.3115
21
-54.124
0
ARC
8
0
10
207.8135
20
-41.126
40
0.5
50
90
51
180
0
ARC
8
0
10
220.8115
20
-41.126
40
0.5
50
0
51
90
0
ARC
8
0
10
207.8135
20
-54.124
40
0.5
50
180
51
270
0
ARC
8
0
10
220.8115
20
-54.124
40
0.5
50
270
51
0
0
LINE
8
0
10
226.8635
20
-40.626
11
239.8615
21
-40.626
0
LINE
8
0
10
226.8635
20
-54.624
11
239.8615
21
-54.624
0
LINE
8
0
10
226.3635
20
-41.126
11
226.3635
21
-54.124
0
LINE
8
0
10
240.3615
20
-41.126
11
240.3615
21
-54.124
0
ARC
8
0
10
226.8635
20
-41.126
40
0.5
50
90
51
180
0
ARC
8
0
10
239.8615
20
-41.126
40
0.5
50
0
51
90
0
ARC
8
0
10
226.8635
20
-54.124
40
0.5
50
180
51
270
0
ARC
8
0
10
239.8615
20
-54.124
40
0.5
50
270
51
0
0
LINE
8
0
10
257.81975
20
-40.626
11
270.81775
21
-40.626
0
LINE
8
0
10
257.81975
20
-54.624
11
270.81775
21
-54.624
0
LINE
8
0
10
257.31975
20
-41.126
11
257.31975
21
-54.124
0
LINE
8
0
10
271.31775
20
-41.126
11
271.31775
21
-54.124
0
ARC
8
0
10
257.81975
20
-41.126
40
0.5
50
90
51
180
0
ARC
8
0
10
270.81775
20
-41.126
40
0.5
50
0
51
90
0
ARC
8
0
10
257.81975
20
-54.124
40
0.5
50
180
51
270
0
ARC
8
0
10
270.81775
20
-54.124
40
0.5
50
270
51
0
0
LINE
8
0
10
249.38175
20
-41.626
11
255.37975
21
-41.626
0
LINE
8
0
10
249.38175
20
-56.624
11
255.37975
21
-56.624
0
LINE
8
0
10
248.88175
20
-42.126
11
248.88175
21
-56.124
0
LINE
8
0
10
255.87975
20
-42.126
11
255.87975
21
-56.124
0
ARC
8
0
10
249.38175
20
-42.126
40
0.5
50
90
51
180
0
ARC
8
0
10
255.37975
20
-42.126
40
0.5
50
0
51
90
0
ARC
8
0
10
249.38175
20
-56.124
40
0.5
50
180
51
270
0
ARC
8
0
10
255.37975
20
-56.124
40
0.5
50
270
51
0
0
LINE
8
0
10
273.25775
20
-41.626
11
279.25575
21
-41.626
0
LINE
8
0
10
273.25775
20
-56.624
11
279.25575
21
-56.624
0
LINE
8
0
10
272.75775
20
-42.126
11
272.75775
21
-56.124
0
LINE
8
0
10
279.75575
20
-42.126
11
279.75575
21
-56.124
0
ARC
8
0
10
273.25775
20
-42.126
40
0.5
50
90
51
180
0
ARC
8
0
10
279.25575
20
-42.126
40
0.5
50
0
51
90
0
ARC
8
0
10
273.25775
20
-56.124
40
0.5
50
180
51
270
0
ARC
8
0
10
279.25575
20
-56.124
40
0.5
50
270
51
0
0
LINE
8
0
10
14.93225
20
-59.676
11
27.93025
21
-59.676
0
LINE
8
0
10
14.93225
20
-73.674
11
27.93025
21
-73.674
0
LINE
8
0
10
14.43225
20
-60.176
11
14.43225
21
-73.174
0
LINE
8
0
10
28.43025
20
-60.176
11
28.43025
21
-73.174
0
ARC
8
0
10
14.93225
20
-60.176
40
0.5
50
90
51
180
0
ARC
8
0
10
27.93025
20
-60.176
40
0.5
50
0
51
90
0
ARC
8
0
10
14.93225
20
-73.174
40
0.5
50
180
51
270
0
ARC
8
0
10
27.93025
20
-73.174
40
0.5
50
270
51
0
0
LINE
8
0
10
6.49425
20
-60.676
11
12.49225
21
-60.676
0
LINE
8
0
10
6.49425
20
-75.674
11
12.49225
21
-75.674
0
LINE
8
0
10
5.99425
20
-61.176
11
5.99425
21
-75.174
0
LINE
8
0
10
12.99225
20
-61.176
11
12.99225
21
-75.174
0
ARC
8
0
10
6.49425
20
-61.176
40
0.5
50
90
51
180
0
ARC
8
0
10
12.49225
20
-61.176
40
0.5
50
0
51
90
0
ARC
8
0
10
6.49425
20
-75.174
40
0.5
50
180
51
270
0
ARC
8
0
10
12.49225
20
-75.174
40
0.5
50
270
51
0
0
LINE
8
0
10
30.37025
20
-60.676
11
36.36825
21
-60.676
0
LINE
8
0
10
30.37025
20
-75.674
11
36.36825
21
-75.674
0
LINE
8
0
10
29.87025
20
-61.176
11
29.87025
21
-75.174
0
LINE
8
0
10
36.86825
20
-61.176
11
36.86825
21
-75.174
0
ARC
8
0
10
30.37025
20
-61.176
40
0.5
50
90
51
180
0
ARC
8
0
10
36.36825
20
-61.176
40
0.5
50
0
51
90
0
ARC
8
0
10
30.37025
20
-75.174
40
0.5
50
180
51
270
0
ARC
8
0
10
36.36825
20
-75.174
40
0.5
50
270
51
0
0
LINE
8
0
10
45.8885
20
-59.676
11
58.8865
21
-59.676
0
LINE
8
0
10
45.8885
20
-73.674
11
58.8865
21
-73.674
0
LINE
8
0
10
45.3885
20
-60.176
11
45.3885
21
-73.174
0
LINE
8
0
10
59.3865
20
-60.176
11
59.3865
21
-73.174
0
ARC
8
0
10
45.8885
20
-60.176
40
0.5
50
90
51
180
0
ARC
8
0
10
58.8865
20
-60.176
40
0.5
50
0
51
90
0
ARC
8
0
10
45.8885
20
-73.174
40
0.5
50
180
51
270
0
ARC
8
0
10
58.8865
20
-73.174
40
0.5
50
270
51
0
0
LINE
8
0
10
64.9385
20
-59.676
11
77.9365
21
-59.676
0
LINE
8
0
10
64.9385
20
-73.674
11
77.9365
21
-73.674
0
LINE
8
0
10
64.4385
20
-60.176
11
64.4385
21
-73.174
0
LINE
8
0
10
78.4365
20
-60.176
11
78.4365
21
-73.174
0
ARC
8
0
10
64.9385
20
-60.176
40
0.5
50
90
51
180
0
ARC
8
0
10
77.9365
20
-60.176
40
0.5
50
0
51
90
0
ARC
8
0
10
64.9385
20
-73.174
40
0.5
50
180
51
270
0
ARC
8
0
10
77.9365
20
-73.174
40
0.5
50
270
51
0
0
LINE
8
0
10
83.9885
20
-59.676
11
96.9865
21
-59.676
0
LINE
8
0
10
83.9885
20
-73.674
11
96.9865
21
-73.674
0
LINE
8
0
10
83.4885
20
-60.176
11
83.4885
21
-73.174
0
LINE
8
0
10
97.4865
20
-60.176
11
97.4865
21
-73.174
0
ARC
8
0
10
83.9885
20
-60.176
40
0.5
50
90
51
180
0
ARC
8
0
10
96.9865
20
-60.176
40
0.5
50
0
51
90
0
ARC
8
0
10
83.9885
20
-73.174
40
0.5
50
180
51
270
0
ARC
8
0
10
96.9865
20
-73.174
40
0.5
50
270
51
0
0
LINE
8
0
10
103.0385
20
-59.676
11
116.0365
21
-59.676
0
LINE
8
0
10
103.0385
20
-73.674
11
116.0365
21
-73.674
0
LINE
8
0
10
102.5385
20
-60.176
11
102.5385
21
-73.174
0
LINE
8
0
10
116.5365
20
-60.176
11
116.5365
21
-73.174
0
ARC
8
0
10
103.0385
20
-60.176
40
0.5
50
90
51
180
0
ARC
8
0
10
116.0365
20
-60.176
40
0.5
50
0
51
90
0
ARC
8
0
10
103.0385
20
-73.174
40
0.5
50
180
51
270
0
ARC
8
0
10
116.0365
20
-73.174
40
0.5
50
270
51
0
0
LINE
8
0
10
122.0885
20
-59.676
11
135.0865
21
-59.676
0
LINE
8
0
10
122.0885
20
-73.674
11
135.0865
21
-73.674
0
LINE
8
0
10
121.5885
20
-60.176
11
121.5885
21
-73.174
0
LINE
8
0
10
135.5865
20
-60.176
11
135.5865
21
-73.174
0
ARC
8
0
10
122.0885
20
-60.176
40
0.5
50
90
51
180
0
ARC
8
0
10
135.0865
20
-60.176
40
0.5
50
0
51
90
0
ARC
8
0
10
122.0885
20
-73.174
40
0.5
50
180
51
270
0
ARC
8
0
10
135.0865
20
-73.174
40
0.5
50
270
51
0
0
LINE
8
0
10
141.1385
20
-59.676
11
154.1365
21
-59.676
0
LINE
8
0
10
141.1385
20
-73.674
11
154.1365
21
-73.674
0
LINE
8
0
10
140.6385
20
-60.176
11
140.6385
21
-73.174
0
LINE
8
0
10
154.6365
20
-60.176
11
154.6365
21
-73.174
0
ARC
8
0
10
141.1385
20
-60.176
40
0.5
50
90
51
180
0
ARC
8
0
10
154.1365
20
-60.176
40
0.5
50
0
51
90
0
ARC
8
0
10
141.1385
20
-73.174
40
0.5
50
180
51
270
0
ARC
8
0
10
154.1365
20
-73.174
40
0.5
50
270
51
0
0
LINE
8
0
10
160.1885
20
-59.676
11
173.1865
21
-59.676
0
LINE
8
0
10
160.1885
20
-73.674
11
173.1865
21
-73.674
0
LINE
8
0
10
159.6885
20
-60.176
11
159.6885
21
-73.174
0
LINE
8
0
10
173.6865
20
-60.176
11
173.6865
21
-73.174
0
ARC
8
0
10
160.1885
20
-60.176
40
0.5
50
90
51
180
0
ARC
8
0
10
173.1865
20
-60.176
40
0.5
50
0
51
90
0
ARC
8
0
10
160.1885
20
-73.174
40
0.5
50
180
51
270
0
ARC
8
0
10
173.1865
20
-73.174
40
0.5
50
270
51
0
0
LINE
8
0
10
179.2385
20
-59.676
11
192.2365
21
-59.676
0
LINE
8
0
10
179.2385
20
-73.674
11
192.2365
21
-73.674
0
LINE
8
0
10
178.7385
20
-60.176
11
178.7385
21
-73.174
0
LINE
8
0
10
192.7365
20
-60.176
11
192.7365
21
-73.174
0
ARC
8
0
10
179.2385
20
-60.176
40
0.5
50
90
51
180
0
ARC
8
0
10
192.2365
20
-60.176
40
0.5
50
0
51
90
0
ARC
8
0
10
179.2385
20
-73.174
40
0.5
50
180
51
270
0
ARC
8
0
10
192.2365
20
-73.174
40
0.5
50
270
51
0
0
LINE
8
0
10
198.2885
20
-59.676
11
211.2865
21
-59.676
0
LINE
8
0
10
198.2885
20
-73.674
11
211.2865
21
-73.674
0
LINE
8
0
10
197.7885
20
-60.176
11
197.7885
21
-73.174
0
LINE
8
0
10
211.7865
20
-60.176
11
211.7865
21
-73.174
0
ARC
8
0
10
198.2885
20
-60.176
40
0.5
50
90
51
180
0
ARC
8
0
10
211.2865
20
-60.176
40
0.5
50
0
51
90
0
ARC
8
0
10
198.2885
20
-73.174
40
0.5
50
180
51
270
0
ARC
8
0
10
211.2865
20
-73.174
40
0.5
50
270
51
0
0
LINE
8
0
10
217.3385
20
-59.676
11
230.3365
21
-59.676
0
LINE
8
0
10
217.3385
20
-73.674
11
230.3365
21
-73.674
0
LINE
8
0
10
216.8385
20
-60.176
11
216.8385
21
-73.174
0
LINE
8
0
10
230.8365
20
-60.176
11
230.8365
21
-73.174
0
ARC
8
0
10
217.3385
20
-60.176
40
0.5
50
90
51
180
0
ARC
8
0
10
230.3365
20
-60.176
40
0.5
50
0
51
90
0
ARC
8
0
10
217.3385
20
-73.174
40
0.5
50
180
51
270
0
ARC
8
0
10
230.3365
20
-73.174
40
0.5
50
270
51
0
0
LINE
8
0
10
243.53225
20
-59.676
11
256.53025
21
-59.676
0
LINE
8
0
10
243.53225
20
-73.674
11
256.53025
21
-73.674
0
LINE
8
0
10
243.03225
20
-60.176
11
243.03225
21
-73.174
0
LINE
8
0
10
257.03025
20
-60.176
11
257.03025
21
-73.174
0
ARC
8
0
10
243.53225
20
-60.176
40
0.5
50
90
51
180
0
ARC
8
0
10
256.53025
20
-60.176
40
0.5
50
0
51
90
0
ARC
8
0
10
243.53225
20
-73.174
40
0.5
50
180
51
270
0
ARC
8
0
10
256.53025
20
-73.174
40
0.5
50
270
51
0
0
LINE
8
0
10
269.726
20
-59.676
11
282.724
21
-59.676
0
LINE
8
0
10
269.726
20
-73.674
11
282.724
21
-73.674
0
LINE
8
0
10
269.226
20
-60.176
11
269.226
21
-73.174
0
LINE
8
0
10
283.224
20
-60.176
11
283.224
21
-73.174
0
ARC
8
0
10
269.726
20
-60.176
40
0.5
50
90
51
180
0
ARC
8
0
10
282.724
20
-60.176
40
0.5
50
0
51
90
0
ARC
8
0
10
269.726
20
-73.174
40
0.5
50
180
51
270
0
ARC
8
0
10
282.724
20
-73.174
40
0.5
50
270
51
0
0
LINE
8
0
10
5.40725
20
-78.726
11
18.40525
21
-78.726
0
LINE
8
0
10
5.40725
20
-92.724
11
18.40525
21
-92.724
0
LINE
8
0
10
4.90725
20
-79.226
11
4.90725
21
-92.224
0
LINE
8
0
10
18.90525
20
-79.226
11
18.90525
21
-92.224
0
ARC
8
0
10
5.40725
20
-79.226
40
0.5
50
90
51
180
0
ARC
8
0
10
18.40525
20
-79.226
40
0.5
50
0
51
90
0
ARC
8
0
10
5.40725
20
-92.224
40
0.5
50
180
51
270
0
ARC
8
0
10
18.40525
20
-92.224
40
0.5
50
270
51
0
0
LINE
8
0
10
29.21975
20
-78.726
11
42.21775
21
-78.726
0
LINE
8
0
10
29.21975
20
-92.724
11
42.21775
21
-92.724
0
LINE
8
0
10
28.71975
20
-79.226
11
28.71975
21
-92.224
0
LINE
8
0
10
42.71775
20
-79.226
11
42.71775
21
-92.224
0
ARC
8
0
10
29.21975
20
-79.226
40
0.5
50
90
51
180
0
ARC
8
0
10
42.21775
20
-79.226
40
0.5
50
0
51
90
0
ARC
8
0
10
29.21975
20
-92.224
40
0.5
50
180
51
270
0
ARC
8
0
10
42.21775
20
-92.224
40
0.5
50
270
51
0
0
LINE
8
0
10
53.03225
20
-78.726
11
66.03025
21
-78.726
0
LINE
8
0
10
53.03225
20
-92.724
11
66.03025
21
-92.724
0
LINE
8
0
10
52.53225
20
-79.226
11
52.53225
21
-92.224
0
LINE
8
0
10
66.53025
20
-79.226
11
66.53025
21
-92.224
0
ARC
8
0
10
53.03225
20
-79.226
40
0.5
50
90
51
180
0
ARC
8
0
10
66.03025
20
-79.226
40
0.5
50
0
51
90
0
ARC
8
0
10
53.03225
20
-92.224
40
0.5
50
180
51
270
0
ARC
8
0
10
66.03025
20
-92.224
40
0.5
50
270
51
0
0
LINE
8
0
10
86.36975
20
-78.726
11
99.36775
21
-78.726
0
LINE
8
0
10
86.36975
20
-92.724
11
99.36775
21
-92.724
0
LINE
8
0
10
85.86975
20
-79.226
11
85.86975
21
-92.224
0
LINE
8
0
10
99.86775
20
-79.226
11
99.86775
21
-92.224
0
ARC
8
0
10
86.36975
20
-79.226
40
0.5
50
90
51
180
0
ARC
8
0
10
99.36775
20
-79.226
40
0.5
50
0
51
90
0
ARC
8
0
10
86.36975
20
-92.224
40
0.5
50
180
51
270
0
ARC
8
0
10
99.36775
20
-92.224
40
0.5
50
270
51
0
0
LINE
8
0
10
107.80575
20
-91.724
11
101.80775
21
-91.724
0
LINE
8
0
10
107.80575
20
-76.726
11
101.80775
21
-76.726
0
LINE
8
0
10
108.30575
20
-91.224
11
108.30575
21
-77.226
0
LINE
8
0
10
101.30775
20
-91.224
11
101.30775
21
-77.226
0
ARC
8
0
10
107.80575
20
-91.224
40
0.5
50
270
51
0
0
ARC
8
0
10
101.80775
20
-91.224
40
0.5
50
180
51
270
0
ARC
8
0
10
107.80575
20
-77.226
40
0.5
50
0
51
90
0
ARC
8
0
10
101.80775
20
-77.226
40
0.5
50
90
51
180
0
LINE
8
0
10
83.92975
20
-91.724
11
77.93175
21
-91.724
0
LINE
8
0
10
83.92975
20
-76.726
11
77.93175
21
-76.726
0
LINE
8
0
10
84.42975
20
-91.224
11
84.42975
21
-77.226
0
LINE
8
0
10
77.43175
20
-91.224
11
77.43175
21
-77.226
0
ARC
8
0
10
83.92975
20
-91.224
40
0.5
50
270
51
0
0
ARC
8
0
10
77.93175
20
-91.224
40
0.5
50
180
51
270
0
ARC
8
0
10
83.92975
20
-77.226
40
0.5
50
0
51
90
0
ARC
8
0
10
77.93175
20
-77.226
40
0.5
50
90
51
180
0
LINE
8
0
10
119.70725
20
-78.726
11
132.70525
21
-78.726
0
LINE
8
0
10
119.70725
20
-92.724
11
132.70525
21
-92.724
0
LINE
8
0
10
119.20725
20
-79.226
11
119.20725
21
-92.224
0
LINE
8
0
10
133.20525
20
-79.226
11
133.20525
21
-92.224
0
ARC
8
0
10
119.70725
20
-79.226
40
0.5
50
90
51
180
0
ARC
8
0
10
132.70525
20
-79.226
40
0.5
50
0
51
90
0
ARC
8
0
10
119.70725
20
-92.224
40
0.5
50
180
51
270
0
ARC
8
0
10
132.70525
20
-92.224
40
0.5
50
270
51
0
0
LINE
8
0
10
157.80725
20
-78.726
11
170.80525
21
-78.726
0
LINE
8
0
10
157.80725
20
-92.724
11
170.80525
21
-92.724
0
LINE
8
0
10
157.30725
20
-79.226
11
157.30725
21
-92.224
0
LINE
8
0
10
171.30525
20
-79.226
11
171.30525
21
-92.224
0
ARC
8
0
10
157.80725
20
-79.226
40
0.5
50
90
51
180
0
ARC
8
0
10
170.80525
20
-79.226
40
0.5
50
0
51
90
0
ARC
8
0
10
157.80725
20
-92.224
40
0.5
50
180
51
270
0
ARC
8
0
10
170.80525
20
-92.224
40
0.5
50
270
51
0
0
LINE
8
0
10
179.24325
20
-91.724
11
173.24525
21
-91.724
0
LINE
8
0
10
179.24325
20
-76.726
11
173.24525
21
-76.726
0
LINE
8
0
10
179.74325
20
-91.224
11
179.74325
21
-77.226
0
LINE
8
0
10
172.74525
20
-91.224
11
172.74525
21
-77.226
0
ARC
8
0
10
179.24325
20
-91.224
40
0.5
50
270
51
0
0
ARC
8
0
10
173.24525
20
-91.224
40
0.5
50
180
51
270
0
ARC
8
0
10
179.24325
20
-77.226
40
0.5
50
0
51
90
0
ARC
8
0
10
173.24525
20
-77.226
40
0.5
50
90
51
180
0
LINE
8
0
10
155.36725
20
-91.724
11
149.36925
21
-91.724
0
LINE
8
0
10
155.36725
20
-76.726
11
149.36925
21
-76.726
0
LINE
8
0
10
155.86725
20
-91.224
11
155.86725
21
-77.226
0
LINE
8
0
10
148.86925
20
-91.224
11
148.86925
21
-77.226
0
ARC
8
0
10
155.36725
20
-91.224
40
0.5
50
270
51
0
0
ARC
8
0
10
149.36925
20
-91.224
40
0.5
50
180
51
270
0
ARC
8
0
10
155.36725
20
-77.226
40
0.5
50
0
51
90
0
ARC
8
0
10
149.36925
20
-77.226
40
0.5
50
90
51
180
0
LINE
8
0
10
193.526
20
-78.726
11
206.524
21
-78.726
0
LINE
8
0
10
193.526
20
-92.724
11
206.524
21
-92.724
0
LINE
8
0
10
193.026
20
-79.226
11
193.026
21
-92.224
0
LINE
8
0
10
207.024
20
-79.226
11
207.024
21
-92.224
0
ARC
8
0
10
193.526
20
-79.226
40
0.5
50
90
51
180
0
ARC
8
0
10
206.524
20
-79.226
40
0.5
50
0
51
90
0
ARC
8
0
10
193.526
20
-92.224
40
0.5
50
180
51
270
0
ARC
8
0
10
206.524
20
-92.224
40
0.5
50
270
51
0
0
LINE
8
0
10
212.576
20
-78.726
11
225.574
21
-78.726
0
LINE
8
0
10
212.576
20
-92.724
11
225.574
21
-92.724
0
LINE
8
0
10
212.076
20
-79.226
11
212.076
21
-92.224
0
LINE
8
0
10
226.074
20
-79.226
11
226.074
21
-92.224
0
ARC
8
0
10
212.576
20
-79.226
40
0.5
50
90
51
180
0
ARC
8
0
10
225.574
20
-79.226
40
0.5
50
0
51
90
0
ARC
8
0
10
212.576
20
-92.224
40
0.5
50
180
51
270
0
ARC
8
0
10
225.574
20
-92.224
40
0.5
50
270
51
0
0
LINE
8
0
10
231.626
20
-78.726
11
244.624
21
-78.726
0
LINE
8
0
10
231.626
20
-92.724
11
244.624
21
-92.724
0
LINE
8
0
10
231.126
20
-79.226
11
231.126
21
-92.224
0
LINE
8
0
10
245.124
20
-79.226
11
245.124
21
-92.224
0
ARC
8
0
10
231.626
20
-79.226
40
0.5
50
90
51
180
0
ARC
8
0
10
244.624
20
-79.226
40
0.5
50
0
51
90
0
ARC
8
0
10
231.626
20
-92.224
40
0.5
50
180
51
270
0
ARC
8
0
10
244.624
20
-92.224
40
0.5
50
270
51
0
0
LINE
8
0
10
250.676
20
-78.726
11
263.674
21
-78.726
0
LINE
8
0
10
250.676
20
-92.724
11
263.674
21
-92.724
0
LINE
8
0
10
250.176
20
-79.226
11
250.176
21
-92.224
0
LINE
8
0
10
264.174
20
-79.226
11
264.174
21
-92.224
0
ARC
8
0
10
250.676
20
-79.226
40
0.5
50
90
51
180
0
ARC
8
0
10
263.674
20
-79.226
40
0.5
50
0
51
90
0
ARC
8
0
10
250.676
20
-92.224
40
0.5
50
180
51
270
0
ARC
8
0
10
263.674
20
-92.224
40
0.5
50
270
51
0
0
LINE
8
0
10
269.726
20
-78.726
11
282.724
21
-78.726
0
LINE
8
0
10
269.726
20
-92.724
11
282.724
21
-92.724
0
LINE
8
0
10
269.226
20
-79.226
11
269.226
21
-92.224
0
LINE
8
0
10
283.224
20
-79.226
11
283.224
21
-92.224
0
ARC
8
0
10
269.726
20
-79.226
40
0.5
50
90
51
180
0
ARC
8
0
10
282.724
20
-79.226
40
0.5
50
0
51
90
0
ARC
8
0
10
269.726
20
-92.224
40
0.5
50
180
51
270
0
ARC
8
0
10
282.724
20
-92.224
40
0.5
50
270
51
0
0
LINE
8
0
10
0
20
-95.25
11
285.75
21
-95.25
0
LINE
8
0
10
0
20
0
11
285.75
21
0
0
LINE
8
0
10
0
20
-95.25
11
0
21
0
0
LINE
8
0
10
285.75
20
-95.25
11
285.75
21
0
0
ENDSEC
0
EOF