  0
SECTION
  2
HEADER
  9
$ACADVER
  1
AC1009
  9
$FILLMODE
 70
 0
  9
$SPLFRAME
 70
 1
  9
$EXTMIN
 10
0
 20
0
 30
0.0
  9
$EXTMAX
 10
1058.33
 20
1058.33
 30
0.0
  0
ENDSEC
  0
SECTION
  2
TABLES
  0
TABLE
  2
LAYER
 70
1
  0
LAYER
  2
0
 70
     0
 62
     7
  6
CONTINUOUS
  0
ENDTAB
  0
ENDSEC
  0
SECTION
  2
ENTITIES
  0
LINE
  8
0
 62
     0
 10
282.47
 20
95.1548
 30
0.0
 11
282.706
 21
95.1452
 31
0.0
  0
LINE
  8
0
 62
     0
 10
282.706
 20
95.1452
 30
0.0
 11
282.94
 21
95.1191
 31
0.0
  0
LINE
  8
0
 62
     0
 10
282.94
 20
95.1191
 30
0.0
 11
283.17
 21
95.0722
 31
0.0
  0
LINE
  8
0
 62
     0
 10
283.17
 20
95.0722
 30
0.0
 11
283.398
 21
95.0087
 31
0.0
  0
LINE
  8
0
 62
     0
 10
283.398
 20
95.0087
 30
0.0
 11
283.618
 21
94.9262
 31
0.0
  0
LINE
  8
0
 62
     0
 10
283.618
 20
94.9262
 30
0.0
 11
283.832
 21
94.8284
 31
0.0
  0
LINE
  8
0
 62
     0
 10
283.832
 20
94.8284
 30
0.0
 11
284.037
 21
94.7127
 31
0.0
  0
LINE
  8
0
 62
     0
 10
284.037
 20
94.7127
 30
0.0
 11
284.234
 21
94.5829
 31
0.0
  0
LINE
  8
0
 62
     0
 10
284.234
 20
94.5829
 30
0.0
 11
284.419
 21
94.4369
 31
0.0
  0
LINE
  8
0
 62
     0
 10
284.419
 20
94.4369
 30
0.0
 11
284.591
 21
94.277
 31
0.0
  0
LINE
  8
0
 62
     0
 10
284.591
 20
94.277
 30
0.0
 11
284.751
 21
94.1035
 31
0.0
  0
LINE
  8
0
 62
     0
 10
284.751
 20
94.1035
 30
0.0
 11
284.897
 21
93.919
 31
0.0
  0
LINE
  8
0
 62
     0
 10
284.897
 20
93.919
 30
0.0
 11
285.028
 21
93.7232
 31
0.0
  0
LINE
  8
0
 62
     0
 10
285.028
 20
93.7232
 30
0.0
 11
285.144
 21
93.5164
 31
0.0
  0
LINE
  8
0
 62
     0
 10
285.144
 20
93.5164
 30
0.0
 11
285.242
 21
93.3027
 31
0.0
  0
LINE
  8
0
 62
     0
 10
285.242
 20
93.3027
 30
0.0
 11
285.323
 21
93.0822
 31
0.0
  0
LINE
  8
0
 62
     0
 10
285.323
 20
93.0822
 30
0.0
 11
285.388
 21
92.855
 31
0.0
  0
LINE
  8
0
 62
     0
 10
285.388
 20
92.855
 30
0.0
 11
285.433
 21
92.625
 31
0.0
  0
LINE
  8
0
 62
     0
 10
285.433
 20
92.625
 30
0.0
 11
285.461
 21
92.3907
 31
0.0
  0
LINE
  8
0
 62
     0
 10
285.461
 20
92.3907
 30
0.0
 11
285.47
 21
92.1551
 31
0.0
  0
LINE
  8
0
 62
     0
 10
285.47
 20
92.1551
 30
0.0
 11
285.47
 21
40.991
 31
0.0
  0
LINE
  8
0
 62
     0
 10
285.47
 20
40.991
 30
0.0
 11
281.97
 21
40.991
 31
0.0
  0
LINE
  8
0
 62
     0
 10
281.97
 20
40.991
 30
0.0
 11
281.197
 21
40.87
 31
0.0
  0
LINE
  8
0
 62
     0
 10
281.197
 20
40.87
 30
0.0
 11
280.501
 21
40.5144
 31
0.0
  0
LINE
  8
0
 62
     0
 10
280.501
 20
40.5144
 30
0.0
 11
279.947
 21
39.9616
 31
0.0
  0
LINE
  8
0
 62
     0
 10
279.947
 20
39.9616
 30
0.0
 11
279.593
 21
39.2645
 31
0.0
  0
LINE
  8
0
 62
     0
 10
279.593
 20
39.2645
 30
0.0
 11
279.47
 21
38.4926
 31
0.0
  0
LINE
  8
0
 62
     0
 10
279.47
 20
38.4926
 30
0.0
 11
279.593
 21
37.7183
 31
0.0
  0
LINE
  8
0
 62
     0
 10
279.593
 20
37.7183
 30
0.0
 11
279.947
 21
37.0223
 31
0.0
  0
LINE
  8
0
 62
     0
 10
279.947
 20
37.0223
 30
0.0
 11
280.501
 21
36.4684
 31
0.0
  0
LINE
  8
0
 62
     0
 10
280.501
 20
36.4684
 30
0.0
 11
281.197
 21
36.1128
 31
0.0
  0
LINE
  8
0
 62
     0
 10
281.197
 20
36.1128
 30
0.0
 11
281.97
 21
35.9914
 31
0.0
  0
LINE
  8
0
 62
     0
 10
281.97
 20
35.9914
 30
0.0
 11
285.47
 21
35.9914
 31
0.0
  0
LINE
  8
0
 62
     0
 10
285.47
 20
35.9914
 30
0.0
 11
285.47
 21
3.22737
 31
0.0
  0
LINE
  8
0
 62
     0
 10
285.47
 20
3.22737
 30
0.0
 11
285.461
 21
2.9931
 31
0.0
  0
LINE
  8
0
 62
     0
 10
285.461
 20
2.9931
 30
0.0
 11
285.433
 21
2.75883
 31
0.0
  0
LINE
  8
0
 62
     0
 10
285.433
 20
2.75883
 30
0.0
 11
285.388
 21
2.52732
 31
0.0
  0
LINE
  8
0
 62
     0
 10
285.388
 20
2.52732
 30
0.0
 11
285.323
 21
2.30132
 31
0.0
  0
LINE
  8
0
 62
     0
 10
285.323
 20
2.30132
 30
0.0
 11
285.242
 21
2.08084
 31
0.0
  0
LINE
  8
0
 62
     0
 10
285.242
 20
2.08084
 30
0.0
 11
285.144
 21
1.86586
 31
0.0
  0
LINE
  8
0
 62
     0
 10
285.144
 20
1.86586
 30
0.0
 11
285.028
 21
1.66191
 31
0.0
  0
LINE
  8
0
 62
     0
 10
285.028
 20
1.66191
 30
0.0
 11
284.897
 21
1.46485
 31
0.0
  0
LINE
  8
0
 62
     0
 10
284.897
 20
1.46485
 30
0.0
 11
284.751
 21
1.2802
 31
0.0
  0
LINE
  8
0
 62
     0
 10
284.751
 20
1.2802
 30
0.0
 11
284.591
 21
1.10794
 31
0.0
  0
LINE
  8
0
 62
     0
 10
284.591
 20
1.10794
 30
0.0
 11
284.419
 21
0.94809
 31
0.0
  0
LINE
  8
0
 62
     0
 10
284.419
 20
0.94809
 30
0.0
 11
284.234
 21
0.802019
 31
0.0
  0
LINE
  8
0
 62
     0
 10
284.234
 20
0.802019
 30
0.0
 11
284.037
 21
0.671103
 31
0.0
  0
LINE
  8
0
 62
     0
 10
284.037
 20
0.671103
 30
0.0
 11
283.832
 21
0.55397
 31
0.0
  0
LINE
  8
0
 62
     0
 10
283.832
 20
0.55397
 30
0.0
 11
283.618
 21
0.456131
 31
0.0
  0
LINE
  8
0
 62
     0
 10
283.618
 20
0.456131
 30
0.0
 11
283.398
 21
0.374826
 31
0.0
  0
LINE
  8
0
 62
     0
 10
283.398
 20
0.374826
 30
0.0
 11
283.17
 21
0.310059
 31
0.0
  0
LINE
  8
0
 62
     0
 10
283.17
 20
0.310059
 30
0.0
 11
282.94
 21
0.265961
 31
0.0
  0
LINE
  8
0
 62
     0
 10
282.94
 20
0.265961
 30
0.0
 11
282.706
 21
0.238401
 31
0.0
  0
LINE
  8
0
 62
     0
 10
282.706
 20
0.238401
 30
0.0
 11
282.47
 21
0.227376
 31
0.0
  0
LINE
  8
0
 62
     0
 10
282.47
 20
0.227376
 30
0.0
 11
3.09507
 21
0.227376
 31
0.0
  0
LINE
  8
0
 62
     0
 10
3.09507
 20
0.227376
 30
0.0
 11
2.85943
 21
0.238401
 31
0.0
  0
LINE
  8
0
 62
     0
 10
2.85943
 20
0.238401
 30
0.0
 11
2.62516
 21
0.265961
 31
0.0
  0
LINE
  8
0
 62
     0
 10
2.62516
 20
0.265961
 30
0.0
 11
2.39503
 21
0.310059
 31
0.0
  0
LINE
  8
0
 62
     0
 10
2.39503
 20
0.310059
 30
0.0
 11
2.16765
 21
0.374826
 31
0.0
  0
LINE
  8
0
 62
     0
 10
2.16765
 20
0.374826
 30
0.0
 11
1.94717
 21
0.456131
 31
0.0
  0
LINE
  8
0
 62
     0
 10
1.94717
 20
0.456131
 30
0.0
 11
1.73357
 21
0.55397
 31
0.0
  0
LINE
  8
0
 62
     0
 10
1.73357
 20
0.55397
 30
0.0
 11
1.52687
 21
0.671103
 31
0.0
  0
LINE
  8
0
 62
     0
 10
1.52687
 20
0.671103
 30
0.0
 11
1.33119
 21
0.802019
 31
0.0
  0
LINE
  8
0
 62
     0
 10
1.33119
 20
0.802019
 30
0.0
 11
1.14653
 21
0.94809
 31
0.0
  0
LINE
  8
0
 62
     0
 10
1.14653
 20
0.94809
 30
0.0
 11
0.972894
 21
1.10794
 31
0.0
  0
LINE
  8
0
 62
     0
 10
0.972894
 20
1.10794
 30
0.0
 11
0.813043
 21
1.2802
 31
0.0
  0
LINE
  8
0
 62
     0
 10
0.813043
 20
1.2802
 30
0.0
 11
0.666972
 21
1.46485
 31
0.0
  0
LINE
  8
0
 62
     0
 10
0.666972
 20
1.46485
 30
0.0
 11
0.537436
 21
1.66191
 31
0.0
  0
LINE
  8
0
 62
     0
 10
0.537436
 20
1.66191
 30
0.0
 11
0.421679
 21
1.86586
 31
0.0
  0
LINE
  8
0
 62
     0
 10
0.421679
 20
1.86586
 30
0.0
 11
0.323839
 21
2.08084
 31
0.0
  0
LINE
  8
0
 62
     0
 10
0.323839
 20
2.08084
 30
0.0
 11
0.241157
 21
2.30132
 31
0.0
  0
LINE
  8
0
 62
     0
 10
0.241157
 20
2.30132
 30
0.0
 11
0.177767
 21
2.52732
 31
0.0
  0
LINE
  8
0
 62
     0
 10
0.177767
 20
2.52732
 30
0.0
 11
0.130914
 21
2.75883
 31
0.0
  0
LINE
  8
0
 62
     0
 10
0.130914
 20
2.75883
 30
0.0
 11
0.104731
 21
2.9931
 31
0.0
  0
LINE
  8
0
 62
     0
 10
0.104731
 20
2.9931
 30
0.0
 11
0.0950846
 21
3.23012
 31
0.0
  0
LINE
  8
0
 62
     0
 10
0.0950846
 20
3.23012
 30
0.0
 11
0.0950846
 21
35.9914
 31
0.0
  0
LINE
  8
0
 62
     0
 10
0.0950846
 20
35.9914
 30
0.0
 11
3.5953
 21
35.9914
 31
0.0
  0
LINE
  8
0
 62
     0
 10
3.5953
 20
35.9914
 30
0.0
 11
4.36838
 21
36.1128
 31
0.0
  0
LINE
  8
0
 62
     0
 10
4.36838
 20
36.1128
 30
0.0
 11
5.0643
 21
36.4684
 31
0.0
  0
LINE
  8
0
 62
     0
 10
5.0643
 20
36.4684
 30
0.0
 11
5.61689
 21
37.0223
 31
0.0
  0
LINE
  8
0
 62
     0
 10
5.61689
 20
37.0223
 30
0.0
 11
5.97242
 21
37.7183
 31
0.0
  0
LINE
  8
0
 62
     0
 10
5.97242
 20
37.7183
 30
0.0
 11
6.09505
 21
38.4912
 31
0.0
  0
LINE
  8
0
 62
     0
 10
6.09505
 20
38.4912
 30
0.0
 11
5.97242
 21
39.2645
 31
0.0
  0
LINE
  8
0
 62
     0
 10
5.97242
 20
39.2645
 30
0.0
 11
5.61689
 21
39.9616
 31
0.0
  0
LINE
  8
0
 62
     0
 10
5.61689
 20
39.9616
 30
0.0
 11
5.0643
 21
40.5144
 31
0.0
  0
LINE
  8
0
 62
     0
 10
5.0643
 20
40.5144
 30
0.0
 11
4.36838
 21
40.87
 31
0.0
  0
LINE
  8
0
 62
     0
 10
4.36838
 20
40.87
 30
0.0
 11
3.59668
 21
40.991
 31
0.0
  0
LINE
  8
0
 62
     0
 10
3.59668
 20
40.991
 30
0.0
 11
0.0950846
 21
40.991
 31
0.0
  0
LINE
  8
0
 62
     0
 10
0.0950846
 20
40.991
 30
0.0
 11
0.0950846
 21
92.1551
 31
0.0
  0
LINE
  8
0
 62
     0
 10
0.0950846
 20
92.1551
 30
0.0
 11
0.104731
 21
92.3907
 31
0.0
  0
LINE
  8
0
 62
     0
 10
0.104731
 20
92.3907
 30
0.0
 11
0.130914
 21
92.625
 31
0.0
  0
LINE
  8
0
 62
     0
 10
0.130914
 20
92.625
 30
0.0
 11
0.177767
 21
92.855
 31
0.0
  0
LINE
  8
0
 62
     0
 10
0.177767
 20
92.855
 30
0.0
 11
0.241157
 21
93.0822
 31
0.0
  0
LINE
  8
0
 62
     0
 10
0.241157
 20
93.0822
 30
0.0
 11
0.323839
 21
93.3027
 31
0.0
  0
LINE
  8
0
 62
     0
 10
0.323839
 20
93.3027
 30
0.0
 11
0.421679
 21
93.5164
 31
0.0
  0
LINE
  8
0
 62
     0
 10
0.421679
 20
93.5164
 30
0.0
 11
0.537436
 21
93.7232
 31
0.0
  0
LINE
  8
0
 62
     0
 10
0.537436
 20
93.7232
 30
0.0
 11
0.666972
 21
93.919
 31
0.0
  0
LINE
  8
0
 62
     0
 10
0.666972
 20
93.919
 30
0.0
 11
0.813043
 21
94.1035
 31
0.0
  0
LINE
  8
0
 62
     0
 10
0.813043
 20
94.1035
 30
0.0
 11
0.972894
 21
94.277
 31
0.0
  0
LINE
  8
0
 62
     0
 10
0.972894
 20
94.277
 30
0.0
 11
1.14653
 21
94.4369
 31
0.0
  0
LINE
  8
0
 62
     0
 10
1.14653
 20
94.4369
 30
0.0
 11
1.33119
 21
94.5829
 31
0.0
  0
LINE
  8
0
 62
     0
 10
1.33119
 20
94.5829
 30
0.0
 11
1.52687
 21
94.7127
 31
0.0
  0
LINE
  8
0
 62
     0
 10
1.52687
 20
94.7127
 30
0.0
 11
1.73357
 21
94.8284
 31
0.0
  0
LINE
  8
0
 62
     0
 10
1.73357
 20
94.8284
 30
0.0
 11
1.94717
 21
94.9262
 31
0.0
  0
LINE
  8
0
 62
     0
 10
1.94717
 20
94.9262
 30
0.0
 11
2.16765
 21
95.0087
 31
0.0
  0
LINE
  8
0
 62
     0
 10
2.16765
 20
95.0087
 30
0.0
 11
2.39503
 21
95.0722
 31
0.0
  0
LINE
  8
0
 62
     0
 10
2.39503
 20
95.0722
 30
0.0
 11
2.62516
 21
95.1191
 31
0.0
  0
LINE
  8
0
 62
     0
 10
2.62516
 20
95.1191
 30
0.0
 11
2.85943
 21
95.1452
 31
0.0
  0
LINE
  8
0
 62
     0
 10
2.85943
 20
95.1452
 30
0.0
 11
3.09507
 21
95.1548
 31
0.0
  0
LINE
  8
0
 62
     0
 10
3.09507
 20
95.1548
 30
0.0
 11
282.47
 21
95.1548
 31
0.0
  0
LINE
  8
0
 62
     0
 10
85.7762
 20
16.593
 30
0.0
 11
85.7762
 21
11.8925
 31
0.0
  0
LINE
  8
0
 62
     0
 10
85.7762
 20
11.8925
 30
0.0
 11
84.2518
 21
11.8925
 31
0.0
  0
LINE
  8
0
 62
     0
 10
84.2518
 20
11.8925
 30
0.0
 11
84.2518
 21
15.1226
 31
0.0
  0
LINE
  8
0
 62
     0
 10
84.2518
 20
15.1226
 30
0.0
 11
77.501
 21
15.1226
 31
0.0
  0
LINE
  8
0
 62
     0
 10
77.501
 20
15.1226
 30
0.0
 11
77.501
 21
11.8925
 31
0.0
  0
LINE
  8
0
 62
     0
 10
77.501
 20
11.8925
 30
0.0
 11
76.677
 21
11.8925
 31
0.0
  0
LINE
  8
0
 62
     0
 10
76.677
 20
11.8925
 30
0.0
 11
76.677
 21
9.09228
 31
0.0
  0
LINE
  8
0
 62
     0
 10
76.677
 20
9.09228
 30
0.0
 11
77.501
 21
9.09228
 31
0.0
  0
LINE
  8
0
 62
     0
 10
77.501
 20
9.09228
 30
0.0
 11
77.501
 21
2.82222
 31
0.0
  0
LINE
  8
0
 62
     0
 10
77.501
 20
2.82222
 30
0.0
 11
79.2261
 21
2.82222
 31
0.0
  0
LINE
  8
0
 62
     0
 10
79.2261
 20
2.82222
 30
0.0
 11
79.2261
 21
1.62195
 31
0.0
  0
LINE
  8
0
 62
     0
 10
79.2261
 20
1.62195
 30
0.0
 11
82.5267
 21
1.62195
 31
0.0
  0
LINE
  8
0
 62
     0
 10
82.5267
 20
1.62195
 30
0.0
 11
82.5267
 21
2.82222
 31
0.0
  0
LINE
  8
0
 62
     0
 10
82.5267
 20
2.82222
 30
0.0
 11
84.2518
 21
2.82222
 31
0.0
  0
LINE
  8
0
 62
     0
 10
84.2518
 20
2.82222
 30
0.0
 11
84.2518
 21
7.29259
 31
0.0
  0
LINE
  8
0
 62
     0
 10
84.2518
 20
7.29259
 30
0.0
 11
85.7762
 21
7.29259
 31
0.0
  0
LINE
  8
0
 62
     0
 10
85.7762
 20
7.29259
 30
0.0
 11
85.7762
 21
2.59209
 31
0.0
  0
LINE
  8
0
 62
     0
 10
85.7762
 20
2.59209
 30
0.0
 11
99.7768
 21
2.59209
 31
0.0
  0
LINE
  8
0
 62
     0
 10
99.7768
 20
2.59209
 30
0.0
 11
99.7768
 21
7.29259
 31
0.0
  0
LINE
  8
0
 62
     0
 10
99.7768
 20
7.29259
 30
0.0
 11
101.301
 21
7.29259
 31
0.0
  0
LINE
  8
0
 62
     0
 10
101.301
 20
7.29259
 30
0.0
 11
101.301
 21
2.82222
 31
0.0
  0
LINE
  8
0
 62
     0
 10
101.301
 20
2.82222
 30
0.0
 11
103.026
 21
2.82222
 31
0.0
  0
LINE
  8
0
 62
     0
 10
103.026
 20
2.82222
 30
0.0
 11
103.026
 21
1.62195
 31
0.0
  0
LINE
  8
0
 62
     0
 10
103.026
 20
1.62195
 30
0.0
 11
106.325
 21
1.62195
 31
0.0
  0
LINE
  8
0
 62
     0
 10
106.325
 20
1.62195
 30
0.0
 11
106.325
 21
2.82222
 31
0.0
  0
LINE
  8
0
 62
     0
 10
106.325
 20
2.82222
 30
0.0
 11
108.052
 21
2.82222
 31
0.0
  0
LINE
  8
0
 62
     0
 10
108.052
 20
2.82222
 30
0.0
 11
108.052
 21
9.09228
 31
0.0
  0
LINE
  8
0
 62
     0
 10
108.052
 20
9.09228
 30
0.0
 11
108.876
 21
9.09228
 31
0.0
  0
LINE
  8
0
 62
     0
 10
108.876
 20
9.09228
 30
0.0
 11
108.876
 21
11.8925
 31
0.0
  0
LINE
  8
0
 62
     0
 10
108.876
 20
11.8925
 30
0.0
 11
108.052
 21
11.8925
 31
0.0
  0
LINE
  8
0
 62
     0
 10
108.052
 20
11.8925
 30
0.0
 11
108.052
 21
15.1226
 31
0.0
  0
LINE
  8
0
 62
     0
 10
108.052
 20
15.1226
 30
0.0
 11
101.301
 21
15.1226
 31
0.0
  0
LINE
  8
0
 62
     0
 10
101.301
 20
15.1226
 30
0.0
 11
101.301
 21
11.8925
 31
0.0
  0
LINE
  8
0
 62
     0
 10
101.301
 20
11.8925
 30
0.0
 11
99.7768
 21
11.8925
 31
0.0
  0
LINE
  8
0
 62
     0
 10
99.7768
 20
11.8925
 30
0.0
 11
99.7768
 21
16.593
 31
0.0
  0
LINE
  8
0
 62
     0
 10
99.7768
 20
16.593
 30
0.0
 11
85.7762
 21
16.593
 31
0.0
  0
LINE
  8
0
 62
     0
 10
157.212
 20
16.593
 30
0.0
 11
157.212
 21
11.8925
 31
0.0
  0
LINE
  8
0
 62
     0
 10
157.212
 20
11.8925
 30
0.0
 11
155.688
 21
11.8925
 31
0.0
  0
LINE
  8
0
 62
     0
 10
155.688
 20
11.8925
 30
0.0
 11
155.688
 21
15.1226
 31
0.0
  0
LINE
  8
0
 62
     0
 10
155.688
 20
15.1226
 30
0.0
 11
148.937
 21
15.1226
 31
0.0
  0
LINE
  8
0
 62
     0
 10
148.937
 20
15.1226
 30
0.0
 11
148.937
 21
11.8925
 31
0.0
  0
LINE
  8
0
 62
     0
 10
148.937
 20
11.8925
 30
0.0
 11
148.113
 21
11.8925
 31
0.0
  0
LINE
  8
0
 62
     0
 10
148.113
 20
11.8925
 30
0.0
 11
148.113
 21
9.09228
 31
0.0
  0
LINE
  8
0
 62
     0
 10
148.113
 20
9.09228
 30
0.0
 11
148.937
 21
9.09228
 31
0.0
  0
LINE
  8
0
 62
     0
 10
148.937
 20
9.09228
 30
0.0
 11
148.937
 21
2.82222
 31
0.0
  0
LINE
  8
0
 62
     0
 10
148.937
 20
2.82222
 30
0.0
 11
150.664
 21
2.82222
 31
0.0
  0
LINE
  8
0
 62
     0
 10
150.664
 20
2.82222
 30
0.0
 11
150.664
 21
1.62195
 31
0.0
  0
LINE
  8
0
 62
     0
 10
150.664
 20
1.62195
 30
0.0
 11
153.963
 21
1.62195
 31
0.0
  0
LINE
  8
0
 62
     0
 10
153.963
 20
1.62195
 30
0.0
 11
153.963
 21
2.82222
 31
0.0
  0
LINE
  8
0
 62
     0
 10
153.963
 20
2.82222
 30
0.0
 11
155.688
 21
2.82222
 31
0.0
  0
LINE
  8
0
 62
     0
 10
155.688
 20
2.82222
 30
0.0
 11
155.688
 21
7.29259
 31
0.0
  0
LINE
  8
0
 62
     0
 10
155.688
 20
7.29259
 30
0.0
 11
157.212
 21
7.29259
 31
0.0
  0
LINE
  8
0
 62
     0
 10
157.212
 20
7.29259
 30
0.0
 11
157.212
 21
2.59209
 31
0.0
  0
LINE
  8
0
 62
     0
 10
157.212
 20
2.59209
 30
0.0
 11
171.213
 21
2.59209
 31
0.0
  0
LINE
  8
0
 62
     0
 10
171.213
 20
2.59209
 30
0.0
 11
171.213
 21
7.29259
 31
0.0
  0
LINE
  8
0
 62
     0
 10
171.213
 20
7.29259
 30
0.0
 11
172.738
 21
7.29259
 31
0.0
  0
LINE
  8
0
 62
     0
 10
172.738
 20
7.29259
 30
0.0
 11
172.738
 21
2.82222
 31
0.0
  0
LINE
  8
0
 62
     0
 10
172.738
 20
2.82222
 30
0.0
 11
174.462
 21
2.82222
 31
0.0
  0
LINE
  8
0
 62
     0
 10
174.462
 20
2.82222
 30
0.0
 11
174.462
 21
1.62195
 31
0.0
  0
LINE
  8
0
 62
     0
 10
174.462
 20
1.62195
 30
0.0
 11
177.764
 21
1.62195
 31
0.0
  0
LINE
  8
0
 62
     0
 10
177.764
 20
1.62195
 30
0.0
 11
177.764
 21
2.82222
 31
0.0
  0
LINE
  8
0
 62
     0
 10
177.764
 20
2.82222
 30
0.0
 11
179.488
 21
2.82222
 31
0.0
  0
LINE
  8
0
 62
     0
 10
179.488
 20
2.82222
 30
0.0
 11
179.488
 21
9.09228
 31
0.0
  0
LINE
  8
0
 62
     0
 10
179.488
 20
9.09228
 30
0.0
 11
180.312
 21
9.09228
 31
0.0
  0
LINE
  8
0
 62
     0
 10
180.312
 20
9.09228
 30
0.0
 11
180.312
 21
11.8925
 31
0.0
  0
LINE
  8
0
 62
     0
 10
180.312
 20
11.8925
 30
0.0
 11
179.488
 21
11.8925
 31
0.0
  0
LINE
  8
0
 62
     0
 10
179.488
 20
11.8925
 30
0.0
 11
179.488
 21
15.1226
 31
0.0
  0
LINE
  8
0
 62
     0
 10
179.488
 20
15.1226
 30
0.0
 11
172.738
 21
15.1226
 31
0.0
  0
LINE
  8
0
 62
     0
 10
172.738
 20
15.1226
 30
0.0
 11
172.738
 21
11.8925
 31
0.0
  0
LINE
  8
0
 62
     0
 10
172.738
 20
11.8925
 30
0.0
 11
171.213
 21
11.8925
 31
0.0
  0
LINE
  8
0
 62
     0
 10
171.213
 20
11.8925
 30
0.0
 11
171.213
 21
16.593
 31
0.0
  0
LINE
  8
0
 62
     0
 10
171.213
 20
16.593
 30
0.0
 11
157.212
 21
16.593
 31
0.0
  0
LINE
  8
0
 62
     0
 10
4.81348
 20
16.593
 30
0.0
 11
18.813
 21
16.593
 31
0.0
  0
LINE
  8
0
 62
     0
 10
18.813
 20
16.593
 30
0.0
 11
18.813
 21
2.59209
 31
0.0
  0
LINE
  8
0
 62
     0
 10
18.813
 20
2.59209
 30
0.0
 11
4.81348
 21
2.59209
 31
0.0
  0
LINE
  8
0
 62
     0
 10
4.81348
 20
2.59209
 30
0.0
 11
4.81348
 21
16.593
 31
0.0
  0
LINE
  8
0
 62
     0
 10
28.626
 20
16.593
 30
0.0
 11
42.6254
 21
16.593
 31
0.0
  0
LINE
  8
0
 62
     0
 10
42.6254
 20
16.593
 30
0.0
 11
42.6254
 21
2.59209
 31
0.0
  0
LINE
  8
0
 62
     0
 10
42.6254
 20
2.59209
 30
0.0
 11
28.626
 21
2.59209
 31
0.0
  0
LINE
  8
0
 62
     0
 10
28.626
 20
2.59209
 30
0.0
 11
28.626
 21
16.593
 31
0.0
  0
LINE
  8
0
 62
     0
 10
52.4387
 20
16.593
 30
0.0
 11
66.4379
 21
16.593
 31
0.0
  0
LINE
  8
0
 62
     0
 10
66.4379
 20
16.593
 30
0.0
 11
66.4379
 21
2.59209
 31
0.0
  0
LINE
  8
0
 62
     0
 10
66.4379
 20
2.59209
 30
0.0
 11
52.4387
 21
2.59209
 31
0.0
  0
LINE
  8
0
 62
     0
 10
52.4387
 20
2.59209
 30
0.0
 11
52.4387
 21
16.593
 31
0.0
  0
LINE
  8
0
 62
     0
 10
119.114
 20
16.593
 30
0.0
 11
133.113
 21
16.593
 31
0.0
  0
LINE
  8
0
 62
     0
 10
133.113
 20
16.593
 30
0.0
 11
133.113
 21
2.59209
 31
0.0
  0
LINE
  8
0
 62
     0
 10
133.113
 20
2.59209
 30
0.0
 11
119.114
 21
2.59209
 31
0.0
  0
LINE
  8
0
 62
     0
 10
119.114
 20
2.59209
 30
0.0
 11
119.114
 21
16.593
 31
0.0
  0
LINE
  8
0
 62
     0
 10
192.931
 20
16.593
 30
0.0
 11
192.931
 21
11.0119
 31
0.0
  0
LINE
  8
0
 62
     0
 10
192.931
 20
11.0119
 30
0.0
 11
192.805
 21
11.2613
 31
0.0
  0
LINE
  8
0
 62
     0
 10
192.805
 20
11.2613
 30
0.0
 11
192.253
 21
11.8139
 31
0.0
  0
LINE
  8
0
 62
     0
 10
192.253
 20
11.8139
 30
0.0
 11
191.556
 21
12.1695
 31
0.0
  0
LINE
  8
0
 62
     0
 10
191.556
 20
12.1695
 30
0.0
 11
190.783
 21
12.2921
 31
0.0
  0
LINE
  8
0
 62
     0
 10
190.783
 20
12.2921
 30
0.0
 11
190.009
 21
12.1695
 31
0.0
  0
LINE
  8
0
 62
     0
 10
190.009
 20
12.1695
 30
0.0
 11
189.312
 21
11.8139
 31
0.0
  0
LINE
  8
0
 62
     0
 10
189.312
 20
11.8139
 30
0.0
 11
188.759
 21
11.2613
 31
0.0
  0
LINE
  8
0
 62
     0
 10
188.759
 20
11.2613
 30
0.0
 11
188.406
 21
10.564
 31
0.0
  0
LINE
  8
0
 62
     0
 10
188.406
 20
10.564
 30
0.0
 11
188.283
 21
9.79096
 31
0.0
  0
LINE
  8
0
 62
     0
 10
188.283
 20
9.79096
 30
0.0
 11
188.406
 21
9.01788
 31
0.0
  0
LINE
  8
0
 62
     0
 10
188.406
 20
9.01788
 30
0.0
 11
188.759
 21
8.32196
 31
0.0
  0
LINE
  8
0
 62
     0
 10
188.759
 20
8.32196
 30
0.0
 11
189.312
 21
7.76799
 31
0.0
  0
LINE
  8
0
 62
     0
 10
189.312
 20
7.76799
 30
0.0
 11
190.009
 21
7.41384
 31
0.0
  0
LINE
  8
0
 62
     0
 10
190.009
 20
7.41384
 30
0.0
 11
190.783
 21
7.29121
 31
0.0
  0
LINE
  8
0
 62
     0
 10
190.783
 20
7.29121
 30
0.0
 11
191.556
 21
7.41384
 31
0.0
  0
LINE
  8
0
 62
     0
 10
191.556
 20
7.41384
 30
0.0
 11
192.253
 21
7.76799
 31
0.0
  0
LINE
  8
0
 62
     0
 10
192.253
 20
7.76799
 30
0.0
 11
192.805
 21
8.32196
 31
0.0
  0
LINE
  8
0
 62
     0
 10
192.805
 20
8.32196
 30
0.0
 11
192.931
 21
8.57141
 31
0.0
  0
LINE
  8
0
 62
     0
 10
192.931
 20
8.57141
 30
0.0
 11
192.931
 21
2.59209
 31
0.0
  0
LINE
  8
0
 62
     0
 10
192.931
 20
2.59209
 30
0.0
 11
206.932
 21
2.59209
 31
0.0
  0
LINE
  8
0
 62
     0
 10
206.932
 20
2.59209
 30
0.0
 11
206.932
 21
16.593
 31
0.0
  0
LINE
  8
0
 62
     0
 10
206.932
 20
16.593
 30
0.0
 11
192.931
 21
16.593
 31
0.0
  0
LINE
  8
0
 62
     0
 10
211.982
 20
16.593
 30
0.0
 11
225.983
 21
16.593
 31
0.0
  0
LINE
  8
0
 62
     0
 10
225.983
 20
16.593
 30
0.0
 11
225.983
 21
2.59209
 31
0.0
  0
LINE
  8
0
 62
     0
 10
225.983
 20
2.59209
 30
0.0
 11
211.982
 21
2.59209
 31
0.0
  0
LINE
  8
0
 62
     0
 10
211.982
 20
2.59209
 30
0.0
 11
211.982
 21
16.593
 31
0.0
  0
LINE
  8
0
 62
     0
 10
231.032
 20
16.593
 30
0.0
 11
245.033
 21
16.593
 31
0.0
  0
LINE
  8
0
 62
     0
 10
245.033
 20
16.593
 30
0.0
 11
245.033
 21
2.59209
 31
0.0
  0
LINE
  8
0
 62
     0
 10
245.033
 20
2.59209
 30
0.0
 11
231.032
 21
2.59209
 31
0.0
  0
LINE
  8
0
 62
     0
 10
231.032
 20
2.59209
 30
0.0
 11
231.032
 21
16.593
 31
0.0
  0
LINE
  8
0
 62
     0
 10
250.081
 20
16.593
 30
0.0
 11
264.082
 21
16.593
 31
0.0
  0
LINE
  8
0
 62
     0
 10
264.082
 20
16.593
 30
0.0
 11
264.082
 21
2.59209
 31
0.0
  0
LINE
  8
0
 62
     0
 10
264.082
 20
2.59209
 30
0.0
 11
250.081
 21
2.59209
 31
0.0
  0
LINE
  8
0
 62
     0
 10
250.081
 20
2.59209
 30
0.0
 11
250.081
 21
16.593
 31
0.0
  0
LINE
  8
0
 62
     0
 10
269.131
 20
16.593
 30
0.0
 11
283.132
 21
16.593
 31
0.0
  0
LINE
  8
0
 62
     0
 10
283.132
 20
16.593
 30
0.0
 11
283.132
 21
2.59209
 31
0.0
  0
LINE
  8
0
 62
     0
 10
283.132
 20
2.59209
 30
0.0
 11
269.131
 21
2.59209
 31
0.0
  0
LINE
  8
0
 62
     0
 10
269.131
 20
2.59209
 30
0.0
 11
269.131
 21
16.593
 31
0.0
  0
LINE
  8
0
 62
     0
 10
14.3371
 20
35.6429
 30
0.0
 11
14.3371
 21
30.9411
 31
0.0
  0
LINE
  8
0
 62
     0
 10
14.3371
 20
30.9411
 30
0.0
 11
12.813
 21
30.9411
 31
0.0
  0
LINE
  8
0
 62
     0
 10
12.813
 20
30.9411
 30
0.0
 11
12.813
 21
34.1726
 31
0.0
  0
LINE
  8
0
 62
     0
 10
12.813
 20
34.1726
 30
0.0
 11
6.06337
 21
34.1726
 31
0.0
  0
LINE
  8
0
 62
     0
 10
6.06337
 20
34.1726
 30
0.0
 11
6.06337
 21
30.9411
 31
0.0
  0
LINE
  8
0
 62
     0
 10
6.06337
 20
30.9411
 30
0.0
 11
5.23794
 21
30.9411
 31
0.0
  0
LINE
  8
0
 62
     0
 10
5.23794
 20
30.9411
 30
0.0
 11
5.23794
 21
28.1423
 31
0.0
  0
LINE
  8
0
 62
     0
 10
5.23794
 20
28.1423
 30
0.0
 11
6.06337
 21
28.1423
 31
0.0
  0
LINE
  8
0
 62
     0
 10
6.06337
 20
28.1423
 30
0.0
 11
6.06337
 21
21.8722
 31
0.0
  0
LINE
  8
0
 62
     0
 10
6.06337
 20
21.8722
 30
0.0
 11
7.78866
 21
21.8722
 31
0.0
  0
LINE
  8
0
 62
     0
 10
7.78866
 20
21.8722
 30
0.0
 11
7.78866
 21
20.672
 31
0.0
  0
LINE
  8
0
 62
     0
 10
7.78866
 20
20.672
 30
0.0
 11
11.0877
 21
20.672
 31
0.0
  0
LINE
  8
0
 62
     0
 10
11.0877
 20
20.672
 30
0.0
 11
11.0877
 21
21.8722
 31
0.0
  0
LINE
  8
0
 62
     0
 10
11.0877
 20
21.8722
 30
0.0
 11
12.813
 21
21.8722
 31
0.0
  0
LINE
  8
0
 62
     0
 10
12.813
 20
21.8722
 30
0.0
 11
12.813
 21
26.3426
 31
0.0
  0
LINE
  8
0
 62
     0
 10
12.813
 20
26.3426
 30
0.0
 11
14.3371
 21
26.3426
 31
0.0
  0
LINE
  8
0
 62
     0
 10
14.3371
 20
26.3426
 30
0.0
 11
14.3371
 21
21.6421
 31
0.0
  0
LINE
  8
0
 62
     0
 10
14.3371
 20
21.6421
 30
0.0
 11
28.338
 21
21.6421
 31
0.0
  0
LINE
  8
0
 62
     0
 10
28.338
 20
21.6421
 30
0.0
 11
28.338
 21
26.3426
 31
0.0
  0
LINE
  8
0
 62
     0
 10
28.338
 20
26.3426
 30
0.0
 11
29.8634
 21
26.3426
 31
0.0
  0
LINE
  8
0
 62
     0
 10
29.8634
 20
26.3426
 30
0.0
 11
29.8634
 21
21.8722
 31
0.0
  0
LINE
  8
0
 62
     0
 10
29.8634
 20
21.8722
 30
0.0
 11
31.5874
 21
21.8722
 31
0.0
  0
LINE
  8
0
 62
     0
 10
31.5874
 20
21.8722
 30
0.0
 11
31.5874
 21
20.672
 31
0.0
  0
LINE
  8
0
 62
     0
 10
31.5874
 20
20.672
 30
0.0
 11
34.8878
 21
20.672
 31
0.0
  0
LINE
  8
0
 62
     0
 10
34.8878
 20
20.672
 30
0.0
 11
34.8878
 21
21.8722
 31
0.0
  0
LINE
  8
0
 62
     0
 10
34.8878
 20
21.8722
 30
0.0
 11
36.613
 21
21.8722
 31
0.0
  0
LINE
  8
0
 62
     0
 10
36.613
 20
21.8722
 30
0.0
 11
36.613
 21
28.1423
 31
0.0
  0
LINE
  8
0
 62
     0
 10
36.613
 20
28.1423
 30
0.0
 11
37.4385
 21
28.1423
 31
0.0
  0
LINE
  8
0
 62
     0
 10
37.4385
 20
28.1423
 30
0.0
 11
37.4385
 21
30.9411
 31
0.0
  0
LINE
  8
0
 62
     0
 10
37.4385
 20
30.9411
 30
0.0
 11
36.613
 21
30.9411
 31
0.0
  0
LINE
  8
0
 62
     0
 10
36.613
 20
30.9411
 30
0.0
 11
36.613
 21
34.1726
 31
0.0
  0
LINE
  8
0
 62
     0
 10
36.613
 20
34.1726
 30
0.0
 11
29.8634
 21
34.1726
 31
0.0
  0
LINE
  8
0
 62
     0
 10
29.8634
 20
34.1726
 30
0.0
 11
29.8634
 21
30.9411
 31
0.0
  0
LINE
  8
0
 62
     0
 10
29.8634
 20
30.9411
 30
0.0
 11
28.338
 21
30.9411
 31
0.0
  0
LINE
  8
0
 62
     0
 10
28.338
 20
30.9411
 30
0.0
 11
28.338
 21
35.6429
 31
0.0
  0
LINE
  8
0
 62
     0
 10
28.338
 20
35.6429
 30
0.0
 11
14.3371
 21
35.6429
 31
0.0
  0
LINE
  8
0
 62
     0
 10
45.296
 20
35.6429
 30
0.0
 11
59.2956
 21
35.6429
 31
0.0
  0
LINE
  8
0
 62
     0
 10
59.2956
 20
35.6429
 30
0.0
 11
59.2956
 21
21.6421
 31
0.0
  0
LINE
  8
0
 62
     0
 10
59.2956
 20
21.6421
 30
0.0
 11
45.296
 21
21.6421
 31
0.0
  0
LINE
  8
0
 62
     0
 10
45.296
 20
21.6421
 30
0.0
 11
45.296
 21
35.6429
 31
0.0
  0
LINE
  8
0
 62
     0
 10
64.346
 20
35.6429
 30
0.0
 11
78.3456
 21
35.6429
 31
0.0
  0
LINE
  8
0
 62
     0
 10
78.3456
 20
35.6429
 30
0.0
 11
78.3456
 21
21.6421
 31
0.0
  0
LINE
  8
0
 62
     0
 10
78.3456
 20
21.6421
 30
0.0
 11
64.346
 21
21.6421
 31
0.0
  0
LINE
  8
0
 62
     0
 10
64.346
 20
21.6421
 30
0.0
 11
64.346
 21
35.6429
 31
0.0
  0
LINE
  8
0
 62
     0
 10
83.396
 20
35.6429
 30
0.0
 11
97.3956
 21
35.6429
 31
0.0
  0
LINE
  8
0
 62
     0
 10
97.3956
 20
35.6429
 30
0.0
 11
97.3956
 21
21.6421
 31
0.0
  0
LINE
  8
0
 62
     0
 10
97.3956
 20
21.6421
 30
0.0
 11
83.396
 21
21.6421
 31
0.0
  0
LINE
  8
0
 62
     0
 10
83.396
 20
21.6421
 30
0.0
 11
83.396
 21
35.6429
 31
0.0
  0
LINE
  8
0
 62
     0
 10
102.445
 20
35.6429
 30
0.0
 11
116.444
 21
35.6429
 31
0.0
  0
LINE
  8
0
 62
     0
 10
116.444
 20
35.6429
 30
0.0
 11
116.444
 21
21.6421
 31
0.0
  0
LINE
  8
0
 62
     0
 10
116.444
 20
21.6421
 30
0.0
 11
102.445
 21
21.6421
 31
0.0
  0
LINE
  8
0
 62
     0
 10
102.445
 20
21.6421
 30
0.0
 11
102.445
 21
35.6429
 31
0.0
  0
LINE
  8
0
 62
     0
 10
121.496
 20
35.6429
 30
0.0
 11
135.496
 21
35.6429
 31
0.0
  0
LINE
  8
0
 62
     0
 10
135.496
 20
35.6429
 30
0.0
 11
135.496
 21
21.6421
 31
0.0
  0
LINE
  8
0
 62
     0
 10
135.496
 20
21.6421
 30
0.0
 11
121.496
 21
21.6421
 31
0.0
  0
LINE
  8
0
 62
     0
 10
121.496
 20
21.6421
 30
0.0
 11
121.496
 21
35.6429
 31
0.0
  0
LINE
  8
0
 62
     0
 10
140.545
 20
35.6429
 30
0.0
 11
154.544
 21
35.6429
 31
0.0
  0
LINE
  8
0
 62
     0
 10
154.544
 20
35.6429
 30
0.0
 11
154.544
 21
21.6421
 31
0.0
  0
LINE
  8
0
 62
     0
 10
154.544
 20
21.6421
 30
0.0
 11
140.545
 21
21.6421
 31
0.0
  0
LINE
  8
0
 62
     0
 10
140.545
 20
21.6421
 30
0.0
 11
140.545
 21
35.6429
 31
0.0
  0
LINE
  8
0
 62
     0
 10
159.596
 20
35.6429
 30
0.0
 11
173.596
 21
35.6429
 31
0.0
  0
LINE
  8
0
 62
     0
 10
173.596
 20
35.6429
 30
0.0
 11
173.596
 21
21.6421
 31
0.0
  0
LINE
  8
0
 62
     0
 10
173.596
 20
21.6421
 30
0.0
 11
159.596
 21
21.6421
 31
0.0
  0
LINE
  8
0
 62
     0
 10
159.596
 20
21.6421
 30
0.0
 11
159.596
 21
35.6429
 31
0.0
  0
LINE
  8
0
 62
     0
 10
178.646
 20
35.6429
 30
0.0
 11
192.646
 21
35.6429
 31
0.0
  0
LINE
  8
0
 62
     0
 10
192.646
 20
35.6429
 30
0.0
 11
192.646
 21
21.6421
 31
0.0
  0
LINE
  8
0
 62
     0
 10
192.646
 20
21.6421
 30
0.0
 11
178.646
 21
21.6421
 31
0.0
  0
LINE
  8
0
 62
     0
 10
178.646
 20
21.6421
 30
0.0
 11
178.646
 21
35.6429
 31
0.0
  0
LINE
  8
0
 62
     0
 10
197.695
 20
35.6429
 30
0.0
 11
211.694
 21
35.6429
 31
0.0
  0
LINE
  8
0
 62
     0
 10
211.694
 20
35.6429
 30
0.0
 11
211.694
 21
21.6421
 31
0.0
  0
LINE
  8
0
 62
     0
 10
211.694
 20
21.6421
 30
0.0
 11
197.695
 21
21.6421
 31
0.0
  0
LINE
  8
0
 62
     0
 10
197.695
 20
21.6421
 30
0.0
 11
197.695
 21
35.6429
 31
0.0
  0
LINE
  8
0
 62
     0
 10
216.746
 20
35.6429
 30
0.0
 11
230.746
 21
35.6429
 31
0.0
  0
LINE
  8
0
 62
     0
 10
230.746
 20
35.6429
 30
0.0
 11
230.746
 21
21.6421
 31
0.0
  0
LINE
  8
0
 62
     0
 10
230.746
 20
21.6421
 30
0.0
 11
216.746
 21
21.6421
 31
0.0
  0
LINE
  8
0
 62
     0
 10
216.746
 20
21.6421
 30
0.0
 11
216.746
 21
35.6429
 31
0.0
  0
LINE
  8
0
 62
     0
 10
242.937
 20
35.6429
 30
0.0
 11
256.938
 21
35.6429
 31
0.0
  0
LINE
  8
0
 62
     0
 10
256.938
 20
35.6429
 30
0.0
 11
256.938
 21
21.6421
 31
0.0
  0
LINE
  8
0
 62
     0
 10
256.938
 20
21.6421
 30
0.0
 11
242.937
 21
21.6421
 31
0.0
  0
LINE
  8
0
 62
     0
 10
242.937
 20
21.6421
 30
0.0
 11
242.937
 21
35.6429
 31
0.0
  0
LINE
  8
0
 62
     0
 10
269.131
 20
35.6429
 30
0.0
 11
283.132
 21
35.6429
 31
0.0
  0
LINE
  8
0
 62
     0
 10
283.132
 20
35.6429
 30
0.0
 11
283.132
 21
21.6421
 31
0.0
  0
LINE
  8
0
 62
     0
 10
283.132
 20
21.6421
 30
0.0
 11
269.131
 21
21.6421
 31
0.0
  0
LINE
  8
0
 62
     0
 10
269.131
 20
21.6421
 30
0.0
 11
269.131
 21
35.6429
 31
0.0
  0
LINE
  8
0
 62
     0
 10
257.225
 20
54.6915
 30
0.0
 11
257.225
 21
49.9925
 31
0.0
  0
LINE
  8
0
 62
     0
 10
257.225
 20
49.9925
 30
0.0
 11
255.7
 21
49.9925
 31
0.0
  0
LINE
  8
0
 62
     0
 10
255.7
 20
49.9925
 30
0.0
 11
255.7
 21
53.2211
 31
0.0
  0
LINE
  8
0
 62
     0
 10
255.7
 20
53.2211
 30
0.0
 11
248.951
 21
53.2211
 31
0.0
  0
LINE
  8
0
 62
     0
 10
248.951
 20
53.2211
 30
0.0
 11
248.951
 21
49.9925
 31
0.0
  0
LINE
  8
0
 62
     0
 10
248.951
 20
49.9925
 30
0.0
 11
248.127
 21
49.9925
 31
0.0
  0
LINE
  8
0
 62
     0
 10
248.127
 20
49.9925
 30
0.0
 11
248.127
 21
47.1911
 31
0.0
  0
LINE
  8
0
 62
     0
 10
248.127
 20
47.1911
 30
0.0
 11
248.951
 21
47.1911
 31
0.0
  0
LINE
  8
0
 62
     0
 10
248.951
 20
47.1911
 30
0.0
 11
248.951
 21
40.9222
 31
0.0
  0
LINE
  8
0
 62
     0
 10
248.951
 20
40.9222
 30
0.0
 11
250.676
 21
40.9222
 31
0.0
  0
LINE
  8
0
 62
     0
 10
250.676
 20
40.9222
 30
0.0
 11
250.676
 21
39.7221
 31
0.0
  0
LINE
  8
0
 62
     0
 10
250.676
 20
39.7221
 30
0.0
 11
253.974
 21
39.7221
 31
0.0
  0
LINE
  8
0
 62
     0
 10
253.974
 20
39.7221
 30
0.0
 11
253.974
 21
40.9222
 31
0.0
  0
LINE
  8
0
 62
     0
 10
253.974
 20
40.9222
 30
0.0
 11
255.7
 21
40.9222
 31
0.0
  0
LINE
  8
0
 62
     0
 10
255.7
 20
40.9222
 30
0.0
 11
255.7
 21
45.3926
 31
0.0
  0
LINE
  8
0
 62
     0
 10
255.7
 20
45.3926
 30
0.0
 11
257.225
 21
45.3926
 31
0.0
  0
LINE
  8
0
 62
     0
 10
257.225
 20
45.3926
 30
0.0
 11
257.225
 21
40.6922
 31
0.0
  0
LINE
  8
0
 62
     0
 10
257.225
 20
40.6922
 30
0.0
 11
271.225
 21
40.6922
 31
0.0
  0
LINE
  8
0
 62
     0
 10
271.225
 20
40.6922
 30
0.0
 11
271.225
 21
45.3926
 31
0.0
  0
LINE
  8
0
 62
     0
 10
271.225
 20
45.3926
 30
0.0
 11
272.751
 21
45.3926
 31
0.0
  0
LINE
  8
0
 62
     0
 10
272.751
 20
45.3926
 30
0.0
 11
272.751
 21
40.9222
 31
0.0
  0
LINE
  8
0
 62
     0
 10
272.751
 20
40.9222
 30
0.0
 11
274.475
 21
40.9222
 31
0.0
  0
LINE
  8
0
 62
     0
 10
274.475
 20
40.9222
 30
0.0
 11
274.475
 21
39.7221
 31
0.0
  0
LINE
  8
0
 62
     0
 10
274.475
 20
39.7221
 30
0.0
 11
277.775
 21
39.7221
 31
0.0
  0
LINE
  8
0
 62
     0
 10
277.775
 20
39.7221
 30
0.0
 11
277.775
 21
40.9222
 31
0.0
  0
LINE
  8
0
 62
     0
 10
277.775
 20
40.9222
 30
0.0
 11
279.501
 21
40.9222
 31
0.0
  0
LINE
  8
0
 62
     0
 10
279.501
 20
40.9222
 30
0.0
 11
279.501
 21
47.1911
 31
0.0
  0
LINE
  8
0
 62
     0
 10
279.501
 20
47.1911
 30
0.0
 11
280.326
 21
47.1911
 31
0.0
  0
LINE
  8
0
 62
     0
 10
280.326
 20
47.1911
 30
0.0
 11
280.326
 21
49.9925
 31
0.0
  0
LINE
  8
0
 62
     0
 10
280.326
 20
49.9925
 30
0.0
 11
279.501
 21
49.9925
 31
0.0
  0
LINE
  8
0
 62
     0
 10
279.501
 20
49.9925
 30
0.0
 11
279.501
 21
53.2211
 31
0.0
  0
LINE
  8
0
 62
     0
 10
279.501
 20
53.2211
 30
0.0
 11
272.751
 21
53.2211
 31
0.0
  0
LINE
  8
0
 62
     0
 10
272.751
 20
53.2211
 30
0.0
 11
272.751
 21
49.9925
 31
0.0
  0
LINE
  8
0
 62
     0
 10
272.751
 20
49.9925
 30
0.0
 11
271.225
 21
49.9925
 31
0.0
  0
LINE
  8
0
 62
     0
 10
271.225
 20
49.9925
 30
0.0
 11
271.225
 21
54.6915
 31
0.0
  0
LINE
  8
0
 62
     0
 10
271.225
 20
54.6915
 30
0.0
 11
257.225
 21
54.6915
 31
0.0
  0
LINE
  8
0
 62
     0
 10
9.57598
 20
54.6915
 30
0.0
 11
23.5768
 21
54.6915
 31
0.0
  0
LINE
  8
0
 62
     0
 10
23.5768
 20
54.6915
 30
0.0
 11
23.5768
 21
40.6922
 31
0.0
  0
LINE
  8
0
 62
     0
 10
23.5768
 20
40.6922
 30
0.0
 11
9.57598
 21
40.6922
 31
0.0
  0
LINE
  8
0
 62
     0
 10
9.57598
 20
40.6922
 30
0.0
 11
9.57598
 21
54.6915
 31
0.0
  0
LINE
  8
0
 62
     0
 10
35.771
 20
54.6915
 30
0.0
 11
49.7706
 21
54.6915
 31
0.0
  0
LINE
  8
0
 62
     0
 10
49.7706
 20
54.6915
 30
0.0
 11
49.7706
 21
40.6922
 31
0.0
  0
LINE
  8
0
 62
     0
 10
49.7706
 20
40.6922
 30
0.0
 11
35.771
 21
40.6922
 31
0.0
  0
LINE
  8
0
 62
     0
 10
35.771
 20
40.6922
 30
0.0
 11
35.771
 21
54.6915
 31
0.0
  0
LINE
  8
0
 62
     0
 10
54.8185
 20
54.6915
 30
0.0
 11
68.8192
 21
54.6915
 31
0.0
  0
LINE
  8
0
 62
     0
 10
68.8192
 20
54.6915
 30
0.0
 11
68.8192
 21
40.6922
 31
0.0
  0
LINE
  8
0
 62
     0
 10
68.8192
 20
40.6922
 30
0.0
 11
54.8185
 21
40.6922
 31
0.0
  0
LINE
  8
0
 62
     0
 10
54.8185
 20
40.6922
 30
0.0
 11
54.8185
 21
54.6915
 31
0.0
  0
LINE
  8
0
 62
     0
 10
73.8699
 20
54.6915
 30
0.0
 11
87.8692
 21
54.6915
 31
0.0
  0
LINE
  8
0
 62
     0
 10
87.8692
 20
54.6915
 30
0.0
 11
87.8692
 21
40.6922
 31
0.0
  0
LINE
  8
0
 62
     0
 10
87.8692
 20
40.6922
 30
0.0
 11
73.8699
 21
40.6922
 31
0.0
  0
LINE
  8
0
 62
     0
 10
73.8699
 20
40.6922
 30
0.0
 11
73.8699
 21
54.6915
 31
0.0
  0
LINE
  8
0
 62
     0
 10
92.9199
 20
54.6915
 30
0.0
 11
106.919
 21
54.6915
 31
0.0
  0
LINE
  8
0
 62
     0
 10
106.919
 20
54.6915
 30
0.0
 11
106.919
 21
40.6922
 31
0.0
  0
LINE
  8
0
 62
     0
 10
106.919
 20
40.6922
 30
0.0
 11
92.9199
 21
40.6922
 31
0.0
  0
LINE
  8
0
 62
     0
 10
92.9199
 20
40.6922
 30
0.0
 11
92.9199
 21
54.6915
 31
0.0
  0
LINE
  8
0
 62
     0
 10
111.968
 20
54.6915
 30
0.0
 11
125.971
 21
54.6915
 31
0.0
  0
LINE
  8
0
 62
     0
 10
125.971
 20
54.6915
 30
0.0
 11
125.971
 21
40.6922
 31
0.0
  0
LINE
  8
0
 62
     0
 10
125.971
 20
40.6922
 30
0.0
 11
111.968
 21
40.6922
 31
0.0
  0
LINE
  8
0
 62
     0
 10
111.968
 20
40.6922
 30
0.0
 11
111.968
 21
54.6915
 31
0.0
  0
LINE
  8
0
 62
     0
 10
131.02
 20
54.6915
 30
0.0
 11
145.019
 21
54.6915
 31
0.0
  0
LINE
  8
0
 62
     0
 10
145.019
 20
54.6915
 30
0.0
 11
145.019
 21
40.6922
 31
0.0
  0
LINE
  8
0
 62
     0
 10
145.019
 20
40.6922
 30
0.0
 11
131.02
 21
40.6922
 31
0.0
  0
LINE
  8
0
 62
     0
 10
131.02
 20
40.6922
 30
0.0
 11
131.02
 21
54.6915
 31
0.0
  0
LINE
  8
0
 62
     0
 10
150.07
 20
54.6915
 30
0.0
 11
164.069
 21
54.6915
 31
0.0
  0
LINE
  8
0
 62
     0
 10
164.069
 20
54.6915
 30
0.0
 11
164.069
 21
40.6922
 31
0.0
  0
LINE
  8
0
 62
     0
 10
164.069
 20
40.6922
 30
0.0
 11
150.07
 21
40.6922
 31
0.0
  0
LINE
  8
0
 62
     0
 10
150.07
 20
40.6922
 30
0.0
 11
150.07
 21
54.6915
 31
0.0
  0
LINE
  8
0
 62
     0
 10
169.121
 20
54.6915
 30
0.0
 11
183.121
 21
54.6915
 31
0.0
  0
LINE
  8
0
 62
     0
 10
183.121
 20
54.6915
 30
0.0
 11
183.121
 21
40.6922
 31
0.0
  0
LINE
  8
0
 62
     0
 10
183.121
 20
40.6922
 30
0.0
 11
169.121
 21
40.6922
 31
0.0
  0
LINE
  8
0
 62
     0
 10
169.121
 20
40.6922
 30
0.0
 11
169.121
 21
54.6915
 31
0.0
  0
LINE
  8
0
 62
     0
 10
188.17
 20
54.6915
 30
0.0
 11
202.169
 21
54.6915
 31
0.0
  0
LINE
  8
0
 62
     0
 10
202.169
 20
54.6915
 30
0.0
 11
202.169
 21
40.6922
 31
0.0
  0
LINE
  8
0
 62
     0
 10
202.169
 20
40.6922
 30
0.0
 11
188.17
 21
40.6922
 31
0.0
  0
LINE
  8
0
 62
     0
 10
188.17
 20
40.6922
 30
0.0
 11
188.17
 21
54.6915
 31
0.0
  0
LINE
  8
0
 62
     0
 10
207.221
 20
54.6915
 30
0.0
 11
221.221
 21
54.6915
 31
0.0
  0
LINE
  8
0
 62
     0
 10
221.221
 20
54.6915
 30
0.0
 11
221.221
 21
40.6922
 31
0.0
  0
LINE
  8
0
 62
     0
 10
221.221
 20
40.6922
 30
0.0
 11
207.221
 21
40.6922
 31
0.0
  0
LINE
  8
0
 62
     0
 10
207.221
 20
40.6922
 30
0.0
 11
207.221
 21
54.6915
 31
0.0
  0
LINE
  8
0
 62
     0
 10
226.271
 20
54.6915
 30
0.0
 11
240.271
 21
54.6915
 31
0.0
  0
LINE
  8
0
 62
     0
 10
240.271
 20
54.6915
 30
0.0
 11
240.271
 21
40.6922
 31
0.0
  0
LINE
  8
0
 62
     0
 10
240.271
 20
40.6922
 30
0.0
 11
226.271
 21
40.6922
 31
0.0
  0
LINE
  8
0
 62
     0
 10
226.271
 20
40.6922
 30
0.0
 11
226.271
 21
54.6915
 31
0.0
  0
LINE
  8
0
 62
     0
 10
127.711
 20
50.0697
 30
0.0
 11
127.014
 21
49.7141
 31
0.0
  0
LINE
  8
0
 62
     0
 10
127.014
 20
49.7141
 30
0.0
 11
126.46
 21
49.1603
 31
0.0
  0
LINE
  8
0
 62
     0
 10
126.46
 20
49.1603
 30
0.0
 11
126.103
 21
48.4643
 31
0.0
  0
LINE
  8
0
 62
     0
 10
126.103
 20
48.4643
 30
0.0
 11
125.983
 21
47.6913
 31
0.0
  0
LINE
  8
0
 62
     0
 10
125.983
 20
47.6913
 30
0.0
 11
126.103
 21
46.9194
 31
0.0
  0
LINE
  8
0
 62
     0
 10
126.103
 20
46.9194
 30
0.0
 11
126.46
 21
46.222
 31
0.0
  0
LINE
  8
0
 62
     0
 10
126.46
 20
46.222
 30
0.0
 11
127.014
 21
45.6696
 31
0.0
  0
LINE
  8
0
 62
     0
 10
127.014
 20
45.6696
 30
0.0
 11
127.711
 21
45.314
 31
0.0
  0
LINE
  8
0
 62
     0
 10
127.711
 20
45.314
 30
0.0
 11
128.484
 21
45.1901
 31
0.0
  0
LINE
  8
0
 62
     0
 10
128.484
 20
45.1901
 30
0.0
 11
129.256
 21
45.314
 31
0.0
  0
LINE
  8
0
 62
     0
 10
129.256
 20
45.314
 30
0.0
 11
129.953
 21
45.6696
 31
0.0
  0
LINE
  8
0
 62
     0
 10
129.953
 20
45.6696
 30
0.0
 11
130.506
 21
46.222
 31
0.0
  0
LINE
  8
0
 62
     0
 10
130.506
 20
46.222
 30
0.0
 11
130.86
 21
46.9194
 31
0.0
  0
LINE
  8
0
 62
     0
 10
130.86
 20
46.9194
 30
0.0
 11
130.984
 21
47.6913
 31
0.0
  0
LINE
  8
0
 62
     0
 10
130.984
 20
47.6913
 30
0.0
 11
130.86
 21
48.4643
 31
0.0
  0
LINE
  8
0
 62
     0
 10
130.86
 20
48.4643
 30
0.0
 11
130.506
 21
49.1603
 31
0.0
  0
LINE
  8
0
 62
     0
 10
130.506
 20
49.1603
 30
0.0
 11
129.953
 21
49.7141
 31
0.0
  0
LINE
  8
0
 62
     0
 10
129.953
 20
49.7141
 30
0.0
 11
129.256
 21
50.0697
 31
0.0
  0
LINE
  8
0
 62
     0
 10
129.256
 20
50.0697
 30
0.0
 11
128.484
 21
50.1908
 31
0.0
  0
LINE
  8
0
 62
     0
 10
128.484
 20
50.1908
 30
0.0
 11
127.711
 21
50.0697
 31
0.0
  0
LINE
  8
0
 62
     0
 10
7.1961
 20
73.7429
 30
0.0
 11
21.1956
 21
73.7429
 31
0.0
  0
LINE
  8
0
 62
     0
 10
21.1956
 20
73.7429
 30
0.0
 11
21.1956
 21
59.7422
 31
0.0
  0
LINE
  8
0
 62
     0
 10
21.1956
 20
59.7422
 30
0.0
 11
7.1961
 21
59.7422
 31
0.0
  0
LINE
  8
0
 62
     0
 10
7.1961
 20
59.7422
 30
0.0
 11
7.1961
 21
73.7429
 31
0.0
  0
LINE
  8
0
 62
     0
 10
31.0059
 20
73.7429
 30
0.0
 11
45.0067
 21
73.7429
 31
0.0
  0
LINE
  8
0
 62
     0
 10
45.0067
 20
73.7429
 30
0.0
 11
45.0067
 21
59.7422
 31
0.0
  0
LINE
  8
0
 62
     0
 10
45.0067
 20
59.7422
 30
0.0
 11
31.0059
 21
59.7422
 31
0.0
  0
LINE
  8
0
 62
     0
 10
31.0059
 20
59.7422
 30
0.0
 11
31.0059
 21
73.7429
 31
0.0
  0
LINE
  8
0
 62
     0
 10
50.0574
 20
73.7429
 30
0.0
 11
64.0581
 21
73.7429
 31
0.0
  0
LINE
  8
0
 62
     0
 10
64.0581
 20
73.7429
 30
0.0
 11
64.0581
 21
59.7422
 31
0.0
  0
LINE
  8
0
 62
     0
 10
64.0581
 20
59.7422
 30
0.0
 11
50.0574
 21
59.7422
 31
0.0
  0
LINE
  8
0
 62
     0
 10
50.0574
 20
59.7422
 30
0.0
 11
50.0574
 21
73.7429
 31
0.0
  0
LINE
  8
0
 62
     0
 10
69.1074
 20
73.7429
 30
0.0
 11
83.1081
 21
73.7429
 31
0.0
  0
LINE
  8
0
 62
     0
 10
83.1081
 20
73.7429
 30
0.0
 11
83.1081
 21
59.7422
 31
0.0
  0
LINE
  8
0
 62
     0
 10
83.1081
 20
59.7422
 30
0.0
 11
69.1074
 21
59.7422
 31
0.0
  0
LINE
  8
0
 62
     0
 10
69.1074
 20
59.7422
 30
0.0
 11
69.1074
 21
73.7429
 31
0.0
  0
LINE
  8
0
 62
     0
 10
88.1574
 20
73.7429
 30
0.0
 11
102.158
 21
73.7429
 31
0.0
  0
LINE
  8
0
 62
     0
 10
102.158
 20
73.7429
 30
0.0
 11
102.158
 21
59.7422
 31
0.0
  0
LINE
  8
0
 62
     0
 10
102.158
 20
59.7422
 30
0.0
 11
88.1574
 21
59.7422
 31
0.0
  0
LINE
  8
0
 62
     0
 10
88.1574
 20
59.7422
 30
0.0
 11
88.1574
 21
73.7429
 31
0.0
  0
LINE
  8
0
 62
     0
 10
107.206
 20
73.7429
 30
0.0
 11
121.207
 21
73.7429
 31
0.0
  0
LINE
  8
0
 62
     0
 10
121.207
 20
73.7429
 30
0.0
 11
121.207
 21
59.7422
 31
0.0
  0
LINE
  8
0
 62
     0
 10
121.207
 20
59.7422
 30
0.0
 11
107.206
 21
59.7422
 31
0.0
  0
LINE
  8
0
 62
     0
 10
107.206
 20
59.7422
 30
0.0
 11
107.206
 21
73.7429
 31
0.0
  0
LINE
  8
0
 62
     0
 10
126.257
 20
73.7429
 30
0.0
 11
140.258
 21
73.7429
 31
0.0
  0
LINE
  8
0
 62
     0
 10
140.258
 20
73.7429
 30
0.0
 11
140.258
 21
59.7422
 31
0.0
  0
LINE
  8
0
 62
     0
 10
140.258
 20
59.7422
 30
0.0
 11
126.257
 21
59.7422
 31
0.0
  0
LINE
  8
0
 62
     0
 10
126.257
 20
59.7422
 30
0.0
 11
126.257
 21
73.7429
 31
0.0
  0
LINE
  8
0
 62
     0
 10
145.306
 20
73.7429
 30
0.0
 11
159.307
 21
73.7429
 31
0.0
  0
LINE
  8
0
 62
     0
 10
159.307
 20
73.7429
 30
0.0
 11
159.307
 21
59.7422
 31
0.0
  0
LINE
  8
0
 62
     0
 10
159.307
 20
59.7422
 30
0.0
 11
145.306
 21
59.7422
 31
0.0
  0
LINE
  8
0
 62
     0
 10
145.306
 20
59.7422
 30
0.0
 11
145.306
 21
73.7429
 31
0.0
  0
LINE
  8
0
 62
     0
 10
164.357
 20
73.7429
 30
0.0
 11
178.358
 21
73.7429
 31
0.0
  0
LINE
  8
0
 62
     0
 10
178.358
 20
73.7429
 30
0.0
 11
178.358
 21
59.7422
 31
0.0
  0
LINE
  8
0
 62
     0
 10
178.358
 20
59.7422
 30
0.0
 11
164.357
 21
59.7422
 31
0.0
  0
LINE
  8
0
 62
     0
 10
164.357
 20
59.7422
 30
0.0
 11
164.357
 21
73.7429
 31
0.0
  0
LINE
  8
0
 62
     0
 10
183.407
 20
73.7429
 30
0.0
 11
197.408
 21
73.7429
 31
0.0
  0
LINE
  8
0
 62
     0
 10
197.408
 20
73.7429
 30
0.0
 11
197.408
 21
59.7422
 31
0.0
  0
LINE
  8
0
 62
     0
 10
197.408
 20
59.7422
 30
0.0
 11
183.407
 21
59.7422
 31
0.0
  0
LINE
  8
0
 62
     0
 10
183.407
 20
59.7422
 30
0.0
 11
183.407
 21
73.7429
 31
0.0
  0
LINE
  8
0
 62
     0
 10
202.456
 20
73.7429
 30
0.0
 11
216.457
 21
73.7429
 31
0.0
  0
LINE
  8
0
 62
     0
 10
216.457
 20
73.7429
 30
0.0
 11
216.457
 21
59.7422
 31
0.0
  0
LINE
  8
0
 62
     0
 10
216.457
 20
59.7422
 30
0.0
 11
202.456
 21
59.7422
 31
0.0
  0
LINE
  8
0
 62
     0
 10
202.456
 20
59.7422
 30
0.0
 11
202.456
 21
73.7429
 31
0.0
  0
LINE
  8
0
 62
     0
 10
221.507
 20
73.7429
 30
0.0
 11
235.508
 21
73.7429
 31
0.0
  0
LINE
  8
0
 62
     0
 10
235.508
 20
73.7429
 30
0.0
 11
235.508
 21
59.7422
 31
0.0
  0
LINE
  8
0
 62
     0
 10
235.508
 20
59.7422
 30
0.0
 11
221.507
 21
59.7422
 31
0.0
  0
LINE
  8
0
 62
     0
 10
221.507
 20
59.7422
 30
0.0
 11
221.507
 21
73.7429
 31
0.0
  0
LINE
  8
0
 62
     0
 10
240.556
 20
73.7429
 30
0.0
 11
254.557
 21
73.7429
 31
0.0
  0
LINE
  8
0
 62
     0
 10
254.557
 20
73.7429
 30
0.0
 11
254.557
 21
59.7422
 31
0.0
  0
LINE
  8
0
 62
     0
 10
254.557
 20
59.7422
 30
0.0
 11
240.556
 21
59.7422
 31
0.0
  0
LINE
  8
0
 62
     0
 10
240.556
 20
59.7422
 30
0.0
 11
240.556
 21
73.7429
 31
0.0
  0
LINE
  8
0
 62
     0
 10
264.37
 20
73.7429
 30
0.0
 11
278.369
 21
73.7429
 31
0.0
  0
LINE
  8
0
 62
     0
 10
278.369
 20
73.7429
 30
0.0
 11
278.369
 21
59.7422
 31
0.0
  0
LINE
  8
0
 62
     0
 10
278.369
 20
59.7422
 30
0.0
 11
264.37
 21
59.7422
 31
0.0
  0
LINE
  8
0
 62
     0
 10
264.37
 20
59.7422
 30
0.0
 11
264.37
 21
73.7429
 31
0.0
  0
LINE
  8
0
 62
     0
 10
24.7096
 20
69.4697
 30
0.0
 11
24.0137
 21
69.1141
 31
0.0
  0
LINE
  8
0
 62
     0
 10
24.0137
 20
69.1141
 30
0.0
 11
23.4597
 21
68.5617
 31
0.0
  0
LINE
  8
0
 62
     0
 10
23.4597
 20
68.5617
 30
0.0
 11
23.1056
 21
67.8642
 31
0.0
  0
LINE
  8
0
 62
     0
 10
23.1056
 20
67.8642
 30
0.0
 11
22.9829
 21
67.0913
 31
0.0
  0
LINE
  8
0
 62
     0
 10
22.9829
 20
67.0913
 30
0.0
 11
23.1056
 21
66.3194
 31
0.0
  0
LINE
  8
0
 62
     0
 10
23.1056
 20
66.3194
 30
0.0
 11
23.4597
 21
65.6223
 31
0.0
  0
LINE
  8
0
 62
     0
 10
23.4597
 20
65.6223
 30
0.0
 11
24.0137
 21
65.0695
 31
0.0
  0
LINE
  8
0
 62
     0
 10
24.0137
 20
65.0695
 30
0.0
 11
24.7096
 21
64.7139
 31
0.0
  0
LINE
  8
0
 62
     0
 10
24.7096
 20
64.7139
 30
0.0
 11
25.4841
 21
64.5901
 31
0.0
  0
LINE
  8
0
 62
     0
 10
25.4841
 20
64.5901
 30
0.0
 11
26.2558
 21
64.7139
 31
0.0
  0
LINE
  8
0
 62
     0
 10
26.2558
 20
64.7139
 30
0.0
 11
26.953
 21
65.0695
 31
0.0
  0
LINE
  8
0
 62
     0
 10
26.953
 20
65.0695
 30
0.0
 11
27.5029
 21
65.6223
 31
0.0
  0
LINE
  8
0
 62
     0
 10
27.5029
 20
65.6223
 30
0.0
 11
27.8612
 21
66.3194
 31
0.0
  0
LINE
  8
0
 62
     0
 10
27.8612
 20
66.3194
 30
0.0
 11
27.9824
 21
67.0913
 31
0.0
  0
LINE
  8
0
 62
     0
 10
27.9824
 20
67.0913
 30
0.0
 11
27.8612
 21
67.8642
 31
0.0
  0
LINE
  8
0
 62
     0
 10
27.8612
 20
67.8642
 30
0.0
 11
27.5029
 21
68.5617
 31
0.0
  0
LINE
  8
0
 62
     0
 10
27.5029
 20
68.5617
 30
0.0
 11
26.953
 21
69.1141
 31
0.0
  0
LINE
  8
0
 62
     0
 10
26.953
 20
69.1141
 30
0.0
 11
26.2558
 21
69.4697
 31
0.0
  0
LINE
  8
0
 62
     0
 10
26.2558
 20
69.4697
 30
0.0
 11
25.4841
 21
69.5911
 31
0.0
  0
LINE
  8
0
 62
     0
 10
25.4841
 20
69.5911
 30
0.0
 11
24.7096
 21
69.4697
 31
0.0
  0
LINE
  8
0
 62
     0
 10
259.559
 20
69.4697
 30
0.0
 11
258.863
 21
69.1141
 31
0.0
  0
LINE
  8
0
 62
     0
 10
258.863
 20
69.1141
 30
0.0
 11
258.309
 21
68.5617
 31
0.0
  0
LINE
  8
0
 62
     0
 10
258.309
 20
68.5617
 30
0.0
 11
257.955
 21
67.8642
 31
0.0
  0
LINE
  8
0
 62
     0
 10
257.955
 20
67.8642
 30
0.0
 11
257.832
 21
67.0913
 31
0.0
  0
LINE
  8
0
 62
     0
 10
257.832
 20
67.0913
 30
0.0
 11
257.955
 21
66.3194
 31
0.0
  0
LINE
  8
0
 62
     0
 10
257.955
 20
66.3194
 30
0.0
 11
258.309
 21
65.6223
 31
0.0
  0
LINE
  8
0
 62
     0
 10
258.309
 20
65.6223
 30
0.0
 11
258.863
 21
65.0695
 31
0.0
  0
LINE
  8
0
 62
     0
 10
258.863
 20
65.0695
 30
0.0
 11
259.559
 21
64.7139
 31
0.0
  0
LINE
  8
0
 62
     0
 10
259.559
 20
64.7139
 30
0.0
 11
260.332
 21
64.5901
 31
0.0
  0
LINE
  8
0
 62
     0
 10
260.332
 20
64.5901
 30
0.0
 11
261.105
 21
64.7139
 31
0.0
  0
LINE
  8
0
 62
     0
 10
261.105
 20
64.7139
 30
0.0
 11
261.801
 21
65.0695
 31
0.0
  0
LINE
  8
0
 62
     0
 10
261.801
 20
65.0695
 30
0.0
 11
262.355
 21
65.6223
 31
0.0
  0
LINE
  8
0
 62
     0
 10
262.355
 20
65.6223
 30
0.0
 11
262.709
 21
66.3194
 31
0.0
  0
LINE
  8
0
 62
     0
 10
262.709
 20
66.3194
 30
0.0
 11
262.832
 21
67.0913
 31
0.0
  0
LINE
  8
0
 62
     0
 10
262.832
 20
67.0913
 30
0.0
 11
262.709
 21
67.8642
 31
0.0
  0
LINE
  8
0
 62
     0
 10
262.709
 20
67.8642
 30
0.0
 11
262.355
 21
68.5617
 31
0.0
  0
LINE
  8
0
 62
     0
 10
262.355
 20
68.5617
 30
0.0
 11
261.801
 21
69.1141
 31
0.0
  0
LINE
  8
0
 62
     0
 10
261.801
 20
69.1141
 30
0.0
 11
261.105
 21
69.4697
 31
0.0
  0
LINE
  8
0
 62
     0
 10
261.105
 20
69.4697
 30
0.0
 11
260.332
 21
69.5911
 31
0.0
  0
LINE
  8
0
 62
     0
 10
260.332
 20
69.5911
 30
0.0
 11
259.559
 21
69.4697
 31
0.0
  0
LINE
  8
0
 62
     0
 10
259.606
 20
92.7929
 30
0.0
 11
259.606
 21
88.0925
 31
0.0
  0
LINE
  8
0
 62
     0
 10
259.606
 20
88.0925
 30
0.0
 11
258.082
 21
88.0925
 31
0.0
  0
LINE
  8
0
 62
     0
 10
258.082
 20
88.0925
 30
0.0
 11
258.082
 21
91.3225
 31
0.0
  0
LINE
  8
0
 62
     0
 10
258.082
 20
91.3225
 30
0.0
 11
251.332
 21
91.3225
 31
0.0
  0
LINE
  8
0
 62
     0
 10
251.332
 20
91.3225
 30
0.0
 11
251.332
 21
88.0925
 31
0.0
  0
LINE
  8
0
 62
     0
 10
251.332
 20
88.0925
 30
0.0
 11
250.508
 21
88.0925
 31
0.0
  0
LINE
  8
0
 62
     0
 10
250.508
 20
88.0925
 30
0.0
 11
250.508
 21
85.2921
 31
0.0
  0
LINE
  8
0
 62
     0
 10
250.508
 20
85.2921
 30
0.0
 11
251.332
 21
85.2921
 31
0.0
  0
LINE
  8
0
 62
     0
 10
251.332
 20
85.2921
 30
0.0
 11
251.332
 21
79.0208
 31
0.0
  0
LINE
  8
0
 62
     0
 10
251.332
 20
79.0208
 30
0.0
 11
253.056
 21
79.0208
 31
0.0
  0
LINE
  8
0
 62
     0
 10
253.056
 20
79.0208
 30
0.0
 11
253.056
 21
77.8221
 31
0.0
  0
LINE
  8
0
 62
     0
 10
253.056
 20
77.8221
 30
0.0
 11
256.357
 21
77.8221
 31
0.0
  0
LINE
  8
0
 62
     0
 10
256.357
 20
77.8221
 30
0.0
 11
256.357
 21
79.0208
 31
0.0
  0
LINE
  8
0
 62
     0
 10
256.357
 20
79.0208
 30
0.0
 11
258.082
 21
79.0208
 31
0.0
  0
LINE
  8
0
 62
     0
 10
258.082
 20
79.0208
 30
0.0
 11
258.082
 21
83.4926
 31
0.0
  0
LINE
  8
0
 62
     0
 10
258.082
 20
83.4926
 30
0.0
 11
259.606
 21
83.4926
 31
0.0
  0
LINE
  8
0
 62
     0
 10
259.606
 20
83.4926
 30
0.0
 11
259.606
 21
78.7922
 31
0.0
  0
LINE
  8
0
 62
     0
 10
259.606
 20
78.7922
 30
0.0
 11
273.607
 21
78.7922
 31
0.0
  0
LINE
  8
0
 62
     0
 10
273.607
 20
78.7922
 30
0.0
 11
273.607
 21
83.4926
 31
0.0
  0
LINE
  8
0
 62
     0
 10
273.607
 20
83.4926
 30
0.0
 11
275.131
 21
83.4926
 31
0.0
  0
LINE
  8
0
 62
     0
 10
275.131
 20
83.4926
 30
0.0
 11
275.131
 21
79.0208
 31
0.0
  0
LINE
  8
0
 62
     0
 10
275.131
 20
79.0208
 30
0.0
 11
276.856
 21
79.0208
 31
0.0
  0
LINE
  8
0
 62
     0
 10
276.856
 20
79.0208
 30
0.0
 11
276.856
 21
77.8221
 31
0.0
  0
LINE
  8
0
 62
     0
 10
276.856
 20
77.8221
 30
0.0
 11
280.157
 21
77.8221
 31
0.0
  0
LINE
  8
0
 62
     0
 10
280.157
 20
77.8221
 30
0.0
 11
280.157
 21
79.0208
 31
0.0
  0
LINE
  8
0
 62
     0
 10
280.157
 20
79.0208
 30
0.0
 11
281.882
 21
79.0208
 31
0.0
  0
LINE
  8
0
 62
     0
 10
281.882
 20
79.0208
 30
0.0
 11
281.882
 21
85.2921
 31
0.0
  0
LINE
  8
0
 62
     0
 10
281.882
 20
85.2921
 30
0.0
 11
282.706
 21
85.2921
 31
0.0
  0
LINE
  8
0
 62
     0
 10
282.706
 20
85.2921
 30
0.0
 11
282.706
 21
88.0925
 31
0.0
  0
LINE
  8
0
 62
     0
 10
282.706
 20
88.0925
 30
0.0
 11
281.882
 21
88.0925
 31
0.0
  0
LINE
  8
0
 62
     0
 10
281.882
 20
88.0925
 30
0.0
 11
281.882
 21
91.3225
 31
0.0
  0
LINE
  8
0
 62
     0
 10
281.882
 20
91.3225
 30
0.0
 11
275.131
 21
91.3225
 31
0.0
  0
LINE
  8
0
 62
     0
 10
275.131
 20
91.3225
 30
0.0
 11
275.131
 21
88.0925
 31
0.0
  0
LINE
  8
0
 62
     0
 10
275.131
 20
88.0925
 30
0.0
 11
273.607
 21
88.0925
 31
0.0
  0
LINE
  8
0
 62
     0
 10
273.607
 20
88.0925
 30
0.0
 11
273.607
 21
92.7929
 31
0.0
  0
LINE
  8
0
 62
     0
 10
273.607
 20
92.7929
 30
0.0
 11
259.606
 21
92.7929
 31
0.0
  0
LINE
  8
0
 62
     0
 10
2.43224
 20
92.7929
 30
0.0
 11
16.4331
 21
92.7929
 31
0.0
  0
LINE
  8
0
 62
     0
 10
16.4331
 20
92.7929
 30
0.0
 11
16.4331
 21
78.7922
 31
0.0
  0
LINE
  8
0
 62
     0
 10
16.4331
 20
78.7922
 30
0.0
 11
2.43224
 21
78.7922
 31
0.0
  0
LINE
  8
0
 62
     0
 10
2.43224
 20
78.7922
 30
0.0
 11
2.43224
 21
92.7929
 31
0.0
  0
LINE
  8
0
 62
     0
 10
21.4822
 20
92.7929
 30
0.0
 11
35.4831
 21
92.7929
 31
0.0
  0
LINE
  8
0
 62
     0
 10
35.4831
 20
92.7929
 30
0.0
 11
35.4831
 21
78.7922
 31
0.0
  0
LINE
  8
0
 62
     0
 10
35.4831
 20
78.7922
 30
0.0
 11
21.4822
 21
78.7922
 31
0.0
  0
LINE
  8
0
 62
     0
 10
21.4822
 20
78.7922
 30
0.0
 11
21.4822
 21
92.7929
 31
0.0
  0
LINE
  8
0
 62
     0
 10
40.5324
 20
92.7929
 30
0.0
 11
54.5331
 21
92.7929
 31
0.0
  0
LINE
  8
0
 62
     0
 10
54.5331
 20
92.7929
 30
0.0
 11
54.5331
 21
78.7922
 31
0.0
  0
LINE
  8
0
 62
     0
 10
54.5331
 20
78.7922
 30
0.0
 11
40.5324
 21
78.7922
 31
0.0
  0
LINE
  8
0
 62
     0
 10
40.5324
 20
78.7922
 30
0.0
 11
40.5324
 21
92.7929
 31
0.0
  0
LINE
  8
0
 62
     0
 10
59.581
 20
92.7929
 30
0.0
 11
73.5817
 21
92.7929
 31
0.0
  0
LINE
  8
0
 62
     0
 10
73.5817
 20
92.7929
 30
0.0
 11
73.5817
 21
78.7922
 31
0.0
  0
LINE
  8
0
 62
     0
 10
73.5817
 20
78.7922
 30
0.0
 11
59.581
 21
78.7922
 31
0.0
  0
LINE
  8
0
 62
     0
 10
59.581
 20
78.7922
 30
0.0
 11
59.581
 21
92.7929
 31
0.0
  0
LINE
  8
0
 62
     0
 10
78.6324
 20
92.7929
 30
0.0
 11
92.6331
 21
92.7929
 31
0.0
  0
LINE
  8
0
 62
     0
 10
92.6331
 20
92.7929
 30
0.0
 11
92.6331
 21
78.7922
 31
0.0
  0
LINE
  8
0
 62
     0
 10
92.6331
 20
78.7922
 30
0.0
 11
78.6324
 21
78.7922
 31
0.0
  0
LINE
  8
0
 62
     0
 10
78.6324
 20
78.7922
 30
0.0
 11
78.6324
 21
92.7929
 31
0.0
  0
LINE
  8
0
 62
     0
 10
97.6824
 20
92.7929
 30
0.0
 11
111.683
 21
92.7929
 31
0.0
  0
LINE
  8
0
 62
     0
 10
111.683
 20
92.7929
 30
0.0
 11
111.683
 21
78.7922
 31
0.0
  0
LINE
  8
0
 62
     0
 10
111.683
 20
78.7922
 30
0.0
 11
97.6824
 21
78.7922
 31
0.0
  0
LINE
  8
0
 62
     0
 10
97.6824
 20
78.7922
 30
0.0
 11
97.6824
 21
92.7929
 31
0.0
  0
LINE
  8
0
 62
     0
 10
116.732
 20
92.7929
 30
0.0
 11
130.733
 21
92.7929
 31
0.0
  0
LINE
  8
0
 62
     0
 10
130.733
 20
92.7929
 30
0.0
 11
130.733
 21
78.7922
 31
0.0
  0
LINE
  8
0
 62
     0
 10
130.733
 20
78.7922
 30
0.0
 11
116.732
 21
78.7922
 31
0.0
  0
LINE
  8
0
 62
     0
 10
116.732
 20
78.7922
 30
0.0
 11
116.732
 21
92.7929
 31
0.0
  0
LINE
  8
0
 62
     0
 10
135.782
 20
92.7929
 30
0.0
 11
149.783
 21
92.7929
 31
0.0
  0
LINE
  8
0
 62
     0
 10
149.783
 20
92.7929
 30
0.0
 11
149.783
 21
78.7922
 31
0.0
  0
LINE
  8
0
 62
     0
 10
149.783
 20
78.7922
 30
0.0
 11
135.782
 21
78.7922
 31
0.0
  0
LINE
  8
0
 62
     0
 10
135.782
 20
78.7922
 30
0.0
 11
135.782
 21
92.7929
 31
0.0
  0
LINE
  8
0
 62
     0
 10
154.831
 20
92.7929
 30
0.0
 11
168.832
 21
92.7929
 31
0.0
  0
LINE
  8
0
 62
     0
 10
168.832
 20
92.7929
 30
0.0
 11
168.832
 21
78.7922
 31
0.0
  0
LINE
  8
0
 62
     0
 10
168.832
 20
78.7922
 30
0.0
 11
154.831
 21
78.7922
 31
0.0
  0
LINE
  8
0
 62
     0
 10
154.831
 20
78.7922
 30
0.0
 11
154.831
 21
92.7929
 31
0.0
  0
LINE
  8
0
 62
     0
 10
173.882
 20
92.7929
 30
0.0
 11
187.883
 21
92.7929
 31
0.0
  0
LINE
  8
0
 62
     0
 10
187.883
 20
92.7929
 30
0.0
 11
187.883
 21
78.7922
 31
0.0
  0
LINE
  8
0
 62
     0
 10
187.883
 20
78.7922
 30
0.0
 11
173.882
 21
78.7922
 31
0.0
  0
LINE
  8
0
 62
     0
 10
173.882
 20
78.7922
 30
0.0
 11
173.882
 21
92.7929
 31
0.0
  0
LINE
  8
0
 62
     0
 10
192.931
 20
92.7929
 30
0.0
 11
206.932
 21
92.7929
 31
0.0
  0
LINE
  8
0
 62
     0
 10
206.932
 20
92.7929
 30
0.0
 11
206.932
 21
78.7922
 31
0.0
  0
LINE
  8
0
 62
     0
 10
206.932
 20
78.7922
 30
0.0
 11
192.931
 21
78.7922
 31
0.0
  0
LINE
  8
0
 62
     0
 10
192.931
 20
78.7922
 30
0.0
 11
192.931
 21
92.7929
 31
0.0
  0
LINE
  8
0
 62
     0
 10
211.982
 20
92.7929
 30
0.0
 11
225.983
 21
92.7929
 31
0.0
  0
LINE
  8
0
 62
     0
 10
225.983
 20
92.7929
 30
0.0
 11
225.983
 21
78.7922
 31
0.0
  0
LINE
  8
0
 62
     0
 10
225.983
 20
78.7922
 30
0.0
 11
211.982
 21
78.7922
 31
0.0
  0
LINE
  8
0
 62
     0
 10
211.982
 20
78.7922
 30
0.0
 11
211.982
 21
92.7929
 31
0.0
  0
LINE
  8
0
 62
     0
 10
231.032
 20
92.7929
 30
0.0
 11
245.033
 21
92.7929
 31
0.0
  0
LINE
  8
0
 62
     0
 10
245.033
 20
92.7929
 30
0.0
 11
245.033
 21
78.7922
 31
0.0
  0
LINE
  8
0
 62
     0
 10
245.033
 20
78.7922
 30
0.0
 11
231.032
 21
78.7922
 31
0.0
  0
LINE
  8
0
 62
     0
 10
231.032
 20
78.7922
 30
0.0
 11
231.032
 21
92.7929
 31
0.0
  0
ENDSEC
  0
EOF
